<svg xmlns="http://www.w3.org/2000/svg" width="12.765" height="7" viewBox="0 0 12.765 7">
  <g id="Iconly_Light-Outline_Arrow---Right-2" data-name="Iconly/Light-Outline/Arrow---Right-2" transform="translate(17.015 -7.75) rotate(90)">
    <g id="Arrow---Right-2" transform="translate(7.75 17.015) rotate(-90)">
      <path id="Stroke-1" d="M.181.181a.618.618,0,0,1,.8-.06l.069.06L6.382,5.509,11.71.181a.618.618,0,0,1,.8-.06l.069.06a.618.618,0,0,1,.06.8l-.06.069L6.819,6.819a.618.618,0,0,1-.8.06l-.069-.06L.181,1.054A.618.618,0,0,1,.181.181Z" fill="#eac666"/>
    </g>
  </g>
</svg>
