<svg xmlns="http://www.w3.org/2000/svg" width="18" height="18" viewBox="0 0 18 18">
  <g id="chart-btn">
    <g id="Iconly_Light-Outline_Activity" data-name="Iconly/Light-Outline/Activity">
      <g id="Activity">
        <path id="Combined-Shape" d="M11.213.732a.652.652,0,0,1,0,1.3H4.894A3.476,3.476,0,0,0,1.3,5.857v7.027c0,2.352,1.375,3.812,3.59,3.812h7.481a3.473,3.473,0,0,0,3.59-3.812V6.763a.652.652,0,0,1,1.3,0v6.12c0,3.06-1.967,5.117-4.894,5.117H4.894C1.967,18,0,15.944,0,12.883V5.857C0,2.792,1.967.732,4.894.732ZM13.052,6.67a.651.651,0,0,1,.117.915l-2.547,3.286a.652.652,0,0,1-.918.114L7.253,9.06l-2.2,2.86a.652.652,0,1,1-1.034-.795l2.6-3.382a.652.652,0,0,1,.436-.25.641.641,0,0,1,.484.135L9.993,9.554l2.145-2.767A.649.649,0,0,1,13.052,6.67ZM15.621,0A2.324,2.324,0,1,1,13.3,2.323,2.325,2.325,0,0,1,15.621,0Zm0,1.3A1.019,1.019,0,1,0,16.64,2.323,1.02,1.02,0,0,0,15.621,1.3Z" transform="translate(0 0)" fill="#eac666" fill-rule="evenodd"/>
      </g>
    </g>
    </g>
</svg>
