<svg xmlns="http://www.w3.org/2000/svg" xmlns:xlink="http://www.w3.org/1999/xlink" width="3626.836" height="1470.031" viewBox="0 0 3626.836 1470.031">
  <defs>
    <clipPath id="clip-path">
      <rect id="Rectangle_1" data-name="Rectangle 1" width="3626.836" height="1470.031" fill="none"/>
    </clipPath>
  </defs>
  <g id="Group_2" data-name="Group 2" clip-path="url(#clip-path)">
    <path id="Path_9" data-name="Path 9" d="M2837.521,789.849c255.087-8.407,461.105.23,461.105,19.426,0,9.345-48.833,19.482-128.386,28.436-109.226-19.892-221.411-36.535-332.719-47.863m315.693,49.71c-50.674,5.314-112.133,10.147-180.378,14.061-115.214-22.4-233.006-40.856-348.99-52.863,60.038-4.289,127.507-7.885,198.931-10.4,110.519,11.618,221.706,28.64,330.437,49.207m-211.119,15.735c-32.546,1.685-66.417,3.156-101.222,4.375-88.654-20.705-179.5-39.366-270.456-54.745q20.364-1.731,42.223-3.351c109.877,12.4,220.628,31.064,329.456,53.721m-91.663,6.618q23.44,2.912,46.788,5.888c129.885,16.565,163.456,30.559,141.532,42.185-61.051-16.757-124.087-32.94-188.32-48.073m176.893,52.562c-32.693,10.02-107.079,18.093-192.407,24.376-204.378-54.233-416.007-105.063-629.846-148.908q126.607,13.539,252.422,26.97c28.754-3.9,63.464-7.653,102.771-11.11,159.372,27.814,318.151,66.08,467.06,108.672m-221.988,26.462c-97.893,6.578-205.139,10.931-278.77,13.27-163.4-45.316-326.259-84.721-486.378-116.412,149.673,30.894,305.819,70.635,465.221,117.058-35.3,1.028-59.917,1.5-67.306,1.43-113.34-1.008-229.4-5.34-363.165-10.71-238.561-73.916-490.863-135.9-729.629-166.682,233.121,31.99,475.441,92.482,706.607,165.729q-18-.779-35.835-1.657-82.641-22.367-164.6-42.108,77.261,19.253,156.6,41.707-83.246-4.212-163.163-10.615c-303.177-93.9-621.3-176.288-951.458-238.584,132.388,3.2,262.888,8.5,380.711,16.512l251.9-29.18q141.055,17.17,281.946,40.042c-40.282,4.223-76.437,6.669-122.5,9.781,156.3,19.821,313.63,37.3,470.471,54.167,220.422,45.215,437.943,98.416,649.333,156.254m-1008.27-13.041c-80.644-7.194-159.213-16.1-236.5-26.728-7.708,2.157-17.435,4.264-28.973,6.305-199.417-58.966-398.791-109.726-594.108-148.98,184.12,38.57,378.012,90.584,575.68,151.959-19.73,2.929-43.245,5.692-69.953,8.229Q1342.7,886.147,1240.82,856.407q28.369.294,55.2.889C1129.326,824.913,964.359,784,792.5,734.412c-43.445-12.538-43.93-10.278-85.934-6.915q-44.052-8.15-87.745-15.3,41.912,6.931,85.723,15.467l-2.086.16c-22.568,1.728-48.253,3.31-76.438,4.708C566.062,717.183,506.1,702.762,447.1,689.667c136.134-.872,285.157-.034,432.318,3.359,322.857,61.334,623.619,140.307,917.646,234.867m-383.531-6.6c-42.121,3.453-90.514,6.381-143.258,8.6-63.745-23.021-135.491-47.516-212.292-72.264q28.388-.656,57.759-1.035c31.9-.409,63.042-.54,93.137-.418,67.8,20.533,136.241,42.349,204.655,65.119m-163.131,9.39c-26.253.994-53.484,1.812-81.467,2.435q-106.006-37.266-214.609-72.074c28.152-1.225,57.587-2.246,88-3.036C1118.2,882.878,1188.6,907.5,1250.4,930.686m-120.513,3.167q-7.054.108-14.147.2-10.076.13-20.039.219-107.753-36.568-216.37-69.3,20.695-1.28,42.71-2.4c69.464,22.845,138.978,46.718,207.847,71.283m-63.135.615c-73.044.3-141.059-.869-200.085-3.226q-71.057-26.417-143.707-51.723c35.839-5.121,83.37-9.71,139.141-13.439,67.279,21.265,135.734,44.188,204.651,68.388m-233.923-4.756c-111.189-5.657-182.913-15.887-182.913-28.429,0-6.485,19.2-12.844,53.1-18.647q64.779,22.8,129.815,47.076M615.4,733.041c-30.9,1.45-64.6,2.679-100.345,3.636q-101.806-24.805-202.827-45.2c29.112-.675,59.431-1.17,90.575-1.46q16.652-.153,33.606-.273c58.953,13.234,118.978,27.8,178.991,43.3M498.2,737.1c-30.582.734-62.528,1.269-95.4,1.574-49.735.462-97.359.359-141.337-.228Q185.912,718.639,108.1,700.5c52.532-3.891,121.018-7.021,198.281-8.887C368.33,704.838,432.5,720.109,498.2,737.1m-257.248,1.032C99.089,735.69,0,728.05,0,718.089c0-6.115,37.344-12.05,99-16.9q70.98,17.583,141.95,36.943m1294.062-58.48,159.968-18.53c223.618,13.8,296.312,31.323,160.91,53.969-12.7,1.653-24.658,3.094-36.188,4.377q-142.806-22.754-284.689-39.816" transform="translate(0 277.556)" fill-rule="evenodd"/>
    <path id="Path_10" data-name="Path 10" d="M746,400.027q-.913-.59-1.827-1.166ZM876.991,509.106h0ZM3246.162,348.774a537.835,537.835,0,0,1,26.043,71.869c16.184,56.655,23.826,116.017,23.826,174.9,0,77.121-13.187,156.434-42.85,227.859-16.843,40.559-40.11,80.818-70.323,113.915,32.236-28.911,57.223-66.91,75.171-105.212,32.979-70.376,47.4-150.9,47.4-228.3,0-61.388-8.986-123.6-28.25-181.957a466.353,466.353,0,0,0-31.012-73.076M2549.53,532.295l-5.182-1.362-4-1.985L2544,527.6l68.28-2.872,57.44-.3,6.629,1.485,56.442,15.888,35.911,6.085-17.651-10.955-69.636-11.2-6.159-1.491,2.832-2.83,89.282-3.767,5.255,2.916,10.532,7.849-5.745,21.949-19.02-.3-12.174-3.5-46.41-6.239Zm206.241,402.647,3.876-1.012c40.849,50.571,96.8,91.63,164.251,91.63a163.828,163.828,0,0,0,29.419-2.666c26.125-4.771,49.948-15.524,71.4-30.174-28.052,1.816-56.3,2.1-84.4,2.757-19.374.454-38.069.314-56.864-4.193l-.615-.148-.05-.014q-2.59-.633-5.161-1.366l-.12-.034c-17.418-4.979-34.225-13.321-50.187-24.63l-.2-.141q-2.268-1.61-4.513-3.3l-.372-.28q-2.215-1.676-4.407-3.427l-.326-.263q-2.237-1.8-4.451-3.667l-.09-.077a254.639,254.639,0,0,1-30.725-31.238l-.391-.466q-1.828-2.2-3.626-4.465c-.238-.3-.476-.591-.711-.89l-.359-.454C2508.627,972.9,2184.37,955.727,1945.942,940.2c-131.564-8.569-294.39-25.73-423.294-45.761l-10.051-1.682c-22.733,88.762-56.207,154.106-95.2,180.385-16.348,9.219-35.094,12.842-53.661,12.479-23.466-.459-40.376-.936-108.148-2.495-19.9-.456-32.772-1.23-52.074-8.322-.666-.249-1.331-.5-1.993-.755l0,0a73.868,73.868,0,0,1-16.944-8.983c-7.275-7.142-14.25-16.486-20.863-27.818-7.877,8.62-16.162,13.222-24.713,13.222-37.9,0-70.6-90.344-85.695-220.784L728.349,788.623a29.851,29.851,0,0,1-11.789,3.941,26.968,26.968,0,0,1-4.93-.048l-.03.124c-9.3,37.759-21.891,77.689-38.455,106.852-12.249,21.566-27.6,38.58-45.289,38.58a27.911,27.911,0,0,1-6.363-.74c-11.9-2.78-22.449-13.1-31.531-26.865-25.168.535-54.2-.9-71.475-2.185-10.243,22.029-22.524,34.442-36.282,34.442-47.168,0-93.8-145.749-104.158-325.54-4.275-74.242-1.692-142.663,6.129-197.43-5.594,51.534-7.038,112.625-3.264,178.141,10.606,184.127,58.362,333.391,106.668,333.391,11.291,0,21.607-8.174,30.658-23.021-6.221-.467-10.893-.913-13.256-1.238-8.177-1.12-15.922-3.181-22.571-8.144-8.011-5.982-9.483-11.184-16.133-17.725-2.231-2.194-4.338-4.765-6.656-7.414-42.057-48.09-68.508-175.505-68.508-322.249,0-125.98,21.482-233.428,50.778-289.534,9.443-18.086,28.739-34.295,30.4-37.062,2.7-6.125,5.5-10.933,8.377-14.272,3.146-3.656,4.522-4.348,9.225-5.13,11.551-1.922,37.14-2.546,43.075-2.61q14.06-.153,27.863.561c14.365.744,56.559,4.24,67.048,9.105a23.667,23.667,0,0,1,4.425,2.728c6.069,4.667,11.942,13.044,17.512,24.613,22.246,16.239,41.363,68.22,53.478,140.475,14.962,4.894,25.9,9.032,40.881,18.495q.914.577,1.827,1.166l0,0c3.3,2.124,6.53,4.323,9.744,6.568l.185.131.544.124a21.657,21.657,0,0,1,5.182,2.043l.019.011.131.068.011.006a34.341,34.341,0,0,0,3.368,1.7,5.671,5.671,0,0,0,.726.229c33.512,7.6,63.1,12,96.6,19.912l.206.037c2.911.491,5.908.792,8.847,1.086.636.064,1.273.124,1.91.185l1.532.139.38.034h0l.379.033c1.664.142,3.328.275,4.994.39.964.065,1.929.125,2.894.17l-.017-.007a28.038,28.038,0,0,1-10.631-9.756l-.012-.017a29.969,29.969,0,0,1-4.218-9.871,24.6,24.6,0,0,1-.533-7.18c1.436-18.482,11.8-26.244,27.822-27.553,34.295-2.8,68.578-5.782,102.863-8.715,8.767-20.616,18.005-39.616,33.767-59.568,30.082-38.076,64.8-67.059,114.016-73.018,1.144-2.292,2.3-4.512,3.466-6.7l1.854-53.893c.28-11.985,3.606-12.519,11.983-12.8l30.8-.909a122.347,122.347,0,0,0-12.342,21.476c6-9.389,12.158-18.809,20.068-26.726a76.951,76.951,0,0,1,11.54-9.3c8.458-5.478,17.26-7.935,28.02-7.806l52.938,3.048c5.02-23.813,9.925-48.477,19.329-71.087,18.023-43.33,46.409-74.537,96.608-72.4,14.728.628,29.621,4.294,42.386,11.367a59.645,59.645,0,0,1,8.154,5.285,140.091,140.091,0,0,1,32.469-3.435c47.225.575,95.494,25.612,125.516,79.353a80.179,80.179,0,0,1,6.9,15.269q2.234,1.286,4.433,2.678c5.8,3.679,11.744,7.39,11.661,14.655l-.16,14.071v.1l0,.359v.045l0,.4v.007l0,.4v.058l0,.346v.109l0,.3,0,.16,0,.244,0,.212v.195l0,.261v.143l0,.312v.091l0,.366v.038l-.006.406v.01l0,.395,0,.062,0,.342v.114l0,.291v.165l0,.24,0,.216v.189l0,.267v.138l0,.318v.087l-.005.369v.037l0,.4v.016l0,.388v.068l0,.338,0,.118,0,.287v.169l0,.236,0,.22,0,.185,0,.271v.133l0,.322v.082l0,.375v.03l0,.4-.2,17.348q-2.085.643-4.167,1.288c-.41,6.348-.36,7.36-6.75,10.694a29.877,29.877,0,0,1-.535,5.307c63.231-10.175,268.345-19.274,307.864.366,16.691,8.3,17.956,12.6,30.343,25.368,9.595,9.892,42.236,41.752,72,69.055l44.626,40.939a44.076,44.076,0,0,0,6.73,5.405c1.75.86,44.9,7.264,49.492,7.958,80.216,12.131,139.9,21.725,220.6,38.3,54.228,11.137,166.4,33,221.346,47.5,14.744,3.892,31.847,9.144,50.335,15.3,5.357-22.039,10.613-48.227,16.171-65.579,4.786-14.944,11.817-27.718,28.415-32.332,14.173-3.94,30.126-.068,40.229,10.508a42.832,42.832,0,0,1,3.389,4.082l.4-.981c.522-1.252,1.061-2.485,1.591-3.727,13.807-32.294,31.632-63.738,54.379-90.608a234.679,234.679,0,0,1,33.155-32.406c.126-.1.257-.193.385-.294,21.817-17.2,47.035-29.626,74.6-33.669l.035-.006.147-.021.82-.116h0c6.143-.831,12.2-1.113,18.344-1.448,19.028-.951,38.042-1.755,57.084-2.3h.338l.054,0h.392l.056,0h.448l.057,0h.393l.055,0h.616l.057,0h.5l.057,0h.055l.057,0h.448c17.221-.456,34.388-.734,50.953-.734a161.373,161.373,0,0,1,39.259,4.9c44.326,11.109,81.849,39.669,111.289,73.826,34.048,39.508,58.938,88.061,76.038,136.985l.037.1,0,.01c19.48,55.772,31.372,119.317,33.315,186.887,6.135,213.48-89.1,386.163-218.693,400.985-9.594,1.1-18.958,1.759-28.574,2.383-23.811,19.091-51,33.221-81.485,38.787a155.322,155.322,0,0,1-27.88,2.527c-69.19,0-125.486-45.466-165.132-98.732M1339.735,111.258c-2.884,10.246-5.144,20.651-7.337,31.063h14.769c5.872-47.909,35.135-87.91,74.425-110.125h0q-.882-.009-1.752,0h-.062q-.873.011-1.735.038h-.023q-.86.028-1.711.074l-.046,0c-.558.03-1.113.065-1.662.106l-.077.006q-.809.062-1.609.138l-.109.01q-.792.079-1.575.17l-.1.013q-.8.1-1.6.209l-.019,0q-.794.113-1.579.241l-.1.016c-.51.085-1.017.173-1.52.268l-.08.016q-.763.145-1.515.3l-.066.016q-.75.158-1.49.332l-.094.023c-.491.116-.981.239-1.467.365l-.051.013a65.936,65.936,0,0,0-27.627,14.964l-.009.009c-8.554,7.661-15.117,17.1-20.556,27.178a176.17,176.17,0,0,0-13.628,34.546M1060.37,830.573c16.37,122.9,48.438,206.417,85.319,206.417a28,28,0,0,0,15.173-4.8,308.186,308.186,0,0,1-18.644-42.116c-21.32-34.621-38.814-88.765-50.515-155.544ZM729.408,596.108c-.317,34.29-.794,68.565-1.289,102.591q-3.482,20.2-7.6,39.954c-5.4,1.136-10.745.686-16.219-.048,6.759-42.318,11.154-91.231,12.439-143.788ZM2645.764,440.02c14.663,5.02,30.031,10.527,45.66,16.308a549.244,549.244,0,0,1,25.992-91.865l.276-.717a36.758,36.758,0,0,0-5.7-6.743c-15.52-13.593-37.256-9.592-47.253,8.207-6.876,12.242-14.083,51.2-18.976,74.81M985.8,775.7,758.322,764.558a22.991,22.991,0,0,0,1.519-2.482,14.959,14.959,0,0,0,1.37-10.9c-.576-2.732-1.487-5.293-1.635-8.093l.946-.655c6.965,1,13.219.453,18.96-3.973,2.93-2.258,5.386-5.141,8.011-7.737.015-.014.027-.027.041-.043l42.46-47.295.236.155,9.206,7.546a6.951,6.951,0,0,0,11.005-3.175.242.242,0,0,1,.027-.031,6.976,6.976,0,0,0,1.191-6.672,6.954,6.954,0,0,0,6.295-12.071l-8.721-7.184,6.044-6.734,9.276,7.64a6.955,6.955,0,0,0,8.821-10.757l-8.794-7.244,6.572-7.321,8.7,7.166a6.956,6.956,0,0,0,8.82-10.758l-8.215-6.77,5.963-6.642,8.354,6.885a6.955,6.955,0,0,0,8.821-10.757l-7.874-6.49,11.985,6.056a6.98,6.98,0,0,0,6.989,1.076l.023-.009c2.429,5.488,5.925,1.637,6.067,14.015.544,47.874-3.4,44.827,17.905,83.316,10.8,19.517,27.9,42.364,47.115,61.076m-278.08,16.243c-1.5-.29-2.988-.642-4.456-1.012-2.9-.731-5.779-1.555-8.656-2.36l-.1-.03c-9.207,38.648-20.751,68.349-33.728,85.491q-1.964,2.594-3.97,4.8c-7.2,7.914-13.146,19.9-21.256,25.09a18.252,18.252,0,0,1-3.321,1.609c-7.046,2.671-19.523,4.076-34.025,4.683,6.1,5.732,12.673,9.773,19.7,11.412a30.47,30.47,0,0,0,6.938.807c18.969,0,35.4-17.879,48.555-41.036,14.1-24.829,25.406-57.049,34.323-89.454m34.248-74.264a18.134,18.134,0,0,1,1.324-8.929,20.592,20.592,0,0,1,1.912-3.308c1.1-1.637,2.287-3.229,3.486-4.793,3.555-4.641,7.326-9.161,11.1-13.622,10.193-12.043,20.716-23.857,31.275-35.591l-6.932-5.684a6.975,6.975,0,0,1-.97-9.788l.027-.033a6.95,6.95,0,0,1,8.481-4.488,6.95,6.95,0,0,1,10.981-7.64l7.742,6.3q2.115-2.321,4.23-4.637l-3.812-2.911a6.74,6.74,0,0,1-2.757-6.29,6.955,6.955,0,0,1,10.017-9.493l7.794,6.419q3.048-3.318,6.1-6.633l-68.6-6.983L742.15,597.4q-1.248,13.943-2.706,27.8c-.216,34.728-.539,69.342-.9,103.616,2-2.046,3.379-8.251,3.423-11.15ZM847.41,568.742c2.276-4.45,3.914-7.5,4.03-7.644a6.912,6.912,0,0,0,3.73-4.6,6.979,6.979,0,0,1,9.789-.97l8.1,6.565.733-.792-7.2-5.834a10.644,10.644,0,0,1,10.512-16.1,10.547,10.547,0,0,1,.414-5.187,8.853,8.853,0,0,1,.654-1.4,2.882,2.882,0,0,1,4.414-.689,20.286,20.286,0,0,1,6.987-3.016c-.047-.3-.088-.6-.122-.9l-77.614-24.086a20.549,20.549,0,0,1-8.4-.934,23.452,23.452,0,0,1-7.772-4.12L739.54,481.5q.2,32.747.18,65.676l95.387,9.71a12.627,12.627,0,0,1,11.023,11.766ZM897.382,514.9q.494-.42.974-.863c2.208-2.037,4.382-4.1,6.567-6.156l.045-2.3c-60.539-14.306-80.518-34.983-130.017-75.335l-2.547-2.077-31.125-7.227a22.552,22.552,0,0,1-2.342.189q.3,21.628.483,43.417l58.294,18.882a19.01,19.01,0,0,1,9.721.787,23.916,23.916,0,0,1,8.542,5.128L877,509.106ZM905.1,498.51l.815-43.255c.039-1.465.127-3.3.145-5.289H882.133c-14.6,0-18.122.027-32.426-3.855l-60.724-14.1,1.14.919.078.063,1.061.856.778.628.36.292,1.139.92,2.174,1.756.1.082,2.273,1.84,1.135.917.156.126.977.791.852.689.282.229,3.369,2.719.024.02q3.612,2.909,7.2,5.766l.092.074c5.956,4.725,11.947,9.387,18.066,13.9q.792.586,1.585,1.163l.013.009a220.728,220.728,0,0,0,27.547,17.568c13.45,7.01,31.066,11.911,45.715,15.169m20.377-48.544c-.889,10.762-1.464,29.96-1.859,48.693l8.453-5.11a174.5,174.5,0,0,1,15.573-27.136c5.243-7.465,9.1-12.655,12.027-16.447ZM727.926,711.837l-.356,24.364c-.267.125-.536.251-.813.379a28.782,28.782,0,0,1-3.4,1.325q2.415-12.947,4.566-26.068M739.48,619.1q.066-10.975.114-21.959l2.276.231q-.576,5.535-1.181,11.055-.587,5.333-1.208,10.673M705.1,391.628c10.646,3.067,18.388,5.485,24.839,8.041-5.319-.135-11.091,1.012-12.131,5.925-1.5,7.068,4.908,11.691,11.086,13.893q.4,20.835.615,41.847l-16.825-5.451c-1.951-22.639-4.5-44.16-7.584-64.255m8.964,81.912,15.591,4.873q.232,33.746.085,67.749l-12.733-1.3c-.328-24.59-1.332-48.465-2.943-71.325m335.843-140.176a136.9,136.9,0,0,1,20.279-6.916q-10.7,21.263-23.046,41.455c-.37.006-.731.006-1.083,0h0c-3.147-1.167-3.959-3.232-4.085-7.245-.2-6.27,5.331-20.977,7.534-26.332Zm46.4-66.034q-9.784,25.289-21.347,49.416a138.806,138.806,0,0,0-19.7,5.065c7.97-15.776,19.061-32.729,29.94-44.2a102.3,102.3,0,0,1,11.1-10.281" transform="translate(157.857 -0.004)" fill-rule="evenodd"/>
    <path id="Path_11" data-name="Path 11" d="M1653.151,467.163l106.519,43.721c1.923,2.162,1.867,5.255.449,8.094l-109.311-44.949q-.294.7-.6,1.4l-10.234-4.208,2.252-5.478,1.163-2.826-20.231-8.319,1.076-7.793-1.308,2.2-1.588,4.849-3.415,8.3-36.628-15.062,2.251-5.476,2.026-4.927-12.757-5.245.956-5.921-2.128,2.12-26.372-3.79c-.009-3.528-.2-6.969-.492-10.118-1.109-11.971-2.171-15.1-6.106-16.534-3.687-1.347-7.1-2.468-10.4-3.466,13.242-1.6,26.493-3.161,39.725-4.836,9.749-1.234,19.484-2.551,29.178-4.154,24.917-4.118,49.752-10.133,74.321-15.941q8.723-2.062,17.454-4.093c150.913,15.367,305.823,36.271,456.9,60.516a39.3,39.3,0,0,0-10.4,13.39c-5.744,13.05-2.624,29.872,9.2,41.284,36.883,35.591,106,38.6,155.44,42.28,61.833,4.6,148.7,5.951,211.4,4.228,25.815-.708,56.882-2.96,85.554-3.855,4.1-.128,24.736-.765,51.792-1.778q7.271,1.61,14.484,3.222c-15.59.525-36.954,1.215-66.165,2.125-23.625.738-47.221,2.36-70.831,3.341l-.057,0c2.62,1.393,5.25,2.793,7.911,4.214,47.385,25.311,129.067,65.068,161.739,104.664l11.271-.224c-33.847-38.847-113.7-76.909-159.822-102.411l-9.415-5.207c16.686-.866,33.373-1.83,50.075-2.35,40.623-1.268,66.066-2.107,81.923-2.671q41.465,9.307,81.025,18.684-37-9.422-75.958-18.865c24.543-.9,48.621-2.458,74.563-4.075,5.533-.344,11.089-.7,16.647-1.1,60.215,32.922,114.085,66.369,151.085,97.832,3.116,2.651,8.7,8.19,11.573,10.812a118.3,118.3,0,0,1,11.968.146c-36.571-35.152-96.918-73.326-165.5-110.819-5.557.4-11.114.753-16.647,1.1-31.421,1.958-59.079,3.561-89.851,4.613q-6.783-1.64-13.621-3.276c48.469-1.852,113.854-4.792,143.728-8.119,4.116-.458,12.686-1.468,18.156-4.069,16.277,6.875,31.064,13.3,43.568,18.882,69.852,31.222,128.683,61.152,191.131,105.076,15,10.549,23.843,17.126,29.952,25.07,17.52,22.781,20.288,64.276,11.358,91-7.345,21.982-21.535,42.078-39.24,58.039,12.651-11.4,21.5-25.742,28.921-40.579,10.885-21.753,13.864-46.241,9.077-71.264-5.865-30.646-26.168-40.011-60.386-47.9a488.065,488.065,0,0,0-55.425-9.178c-75.4-8.028-185.588-.9-272.861,3.223-110.906,1.09-154.528,1.83-234.382-18.377-188.486-47.694-275.089-93.479-517.241-122.645,348.139,66.43,566.926,191.42,156.385,71.988,80.423,26,205.458,103.878,410.542,119.432a108.8,108.8,0,0,0-8.675,13.835c-107.4-7.24-159.185-5.752-228.082-41.814,51.137,29.263,41.116,35.713,44.421,36.024,1.39.132,3.014.274,4.847.424,31.191,2.564,132.245,8.631,178.128,6.706-8.824,17.681-5.548,26.287-14.108,30.7-14.417,7.428-152.216-1.2-172.149-5.634.285-16.738,5-32.215-8.731-42.386C2168.074,580.712,2061.907,559.9,1889.946,531.783c-16.725-2.735-12.4-9.4-7.208-18.711,20.711-37.5,42.518-61.685-1.491-62.176-2.929-.033-6.09-.054-9.432-.055.253.284.507.592.767.929,12.124.075,21.745.913,24.968,2.833,5.89,3.51,7.228,5.148-19.767,8.836,4,19.809-9.3,46.025-14.362,58.912-10.662,27.14-20.791,51.256-31.442,79.239l-.788,2.073-.594-14.854.661-2.182c.767-2.938,2.522-6.538,6.172-16.029,7.843-20.392,23.156-57.745,28.913-77.1,2.856-9.609,5.468-19.592,4-29.084-12.053,1.532-23.293,2.838-45.269,5.259,3.459,10.981,6.484,130.075,4.515,100.932-1.705-25.223-5.113-57.962-8.58-83.441-1.562-11.481-3.771-31.032-19.523-31.212-11.127-.128-79.984,20.968-103.937,28.276l-44.126-18.144c-.083.355-.172.715-.268,1.078m-477.092,540.1c-13.014,27.322-27.792,42.772-43.459,42.772-19.516,0-37.65-23.958-52.712-65l11.709.75h0c14.078,32.323,30.35,50.778,47.687,50.778,13.018,0,25.433-10.43,36.773-29.3M1046.905,829.25q-.894-7.733-1.709-15.644l-.043-.419L715.99,768.82l15.171-.87,313.489,40.23c-.116-1.181-.228-2.37-.34-3.557q-.175-1.825-.344-3.658-.219-2.37-.431-4.755-.207-2.315-.4-4.646-.174-2.04-.342-4.092-.19-2.307-.371-4.624-.162-2.081-.321-4.17-.189-2.517-.37-5.05-.14-1.962-.275-3.93-.187-2.724-.365-5.466l-.218-3.42q-.192-3.063-.369-6.148l-.166-2.9q-.184-3.254-.351-6.53l-.128-2.53q-.182-3.659-.347-7.346l-.073-1.668q-.173-3.959-.324-7.944l-.053-1.387q-.155-4.132-.287-8.292l-.035-1.14q-.135-4.3-.244-8.635l-.025-.955q-.113-4.487-.2-9.006l-.009-.442q-.086-4.656-.146-9.343l0-.356q-.06-4.781-.09-9.592v-.129q-.03-4.9-.03-9.84,0-2.015,0-4.024v-.07l0-.415.013-3.373,0-.3.018-3.071.007-1v-.2l.029-3.271.006-.586.005-.531.038-3.346,0-.175v-.06l.053-3.689,0-.292,0-.234,0-.081.055-3.249.007-.464.013-.643.042-2.213.022-1.1.011-.525.078-3.511v-.026l.008-.349.081-3.3.009-.345.02-.752.06-2.192.029-1.036,0-.06.1-3.476.027-.9.072-2.177.035-1.088.031-.911.006-.176.038-1.088.038-1.085.01-.29.027-.8.041-1.083.081-2.165.02-.51.022-.571,0-.068.084-2.09.044-1.078.047-1.106.094-2.2.075-1.673.018-.39.049-1.071-62.208-4.058,33.574-4.227L764.238,569.7l14.425,5.721-67.943-9.539c0-1.122.008-2.242.008-3.366l329.4,22.746.013-.247q.107-2,.218-3.99l0-.04.08-1.421.083-1.418.082-1.418.17-2.781,0-.047.086-1.41q.177-2.82.362-5.624l.093-1.4.192-2.8.1-1.393q.2-2.788.4-5.556l.1-1.383.211-2.76.106-1.376q.38-4.809.787-9.561v-.011l.118-1.359.238-2.71.121-1.35q.242-2.7.5-5.383l.126-1.339.259-2.671.13-1.333q.262-2.66.535-5.3l.136-1.319q.48-4.615.989-9.168l.145-1.3.295-2.591.151-1.292.3-2.574.152-1.284.155-1.282a111.788,111.788,0,0,1-8.093-11.273c-16,7.027-25.547,16.453-37.47,35.743-2.8-16.381-52.507-1.829-70.135-.5-6.221.47-7.211,1.853-7.211,11.938l-6.208.735c-3.622.984,1.395-22.712,4.142-21.327,13.406,4.795,33.368,3.383,46.8-.8,2.015-.628,9.011-3.714,2.446-2.36-25.351,4.347-46.271-.1-47.32-3.227-2.895-2.127,19.188-46.184,22.441-39.537,13.535,37.288,75.721,44.7,57.7,36.945-25.062-8.985-47.2-23.487-52.52-44.658,12.35-18.6,29.349-34.238,47.029-47.972,5.032-6.557-17.887,8.759-28.58,20.636,7.307-16.618,14.387-34.743,22.067-52.964-42.3,2.253-86.6,5.792-124.138,9.963,2.14-4.633,9.406-8.962,20.842-9.9,35.725-2.919,71.433-6.029,107.147-9.08,14.659-33.8,31.847-67.121,56.844-90.932,22.308-21.031,47.225-36,78.012-41.665l.1-.02.67-.122.491-.085.924-.159.575-.1c.4-.065.8-.129,1.193-.19l.148-.024.054-.007h0c.48-.075.962-.146,1.445-.216l.276-.04q.662-.094,1.326-.183l.249-.033c.5-.065,1.011-.131,1.519-.192q-3.15,6.3-6.2,13.122c-25.343,3.337-44.482,12.747-59.618,26.9q-.6.62-1.205,1.257c-13.37,14.1-27.064,36.619-34.676,54.764l-.392.946-.1.253-.032.08-.077.187-.061.152-.051.128c-2.335,5.8-7.259,19.2-7.075,25.066l.005.1,0,.1,0,.011,0,.084,0,.1,0,.024,0,.07,0,.094,0,.037v.057l.006.092,0,.047,0,.044.005.091,0,.058,0,.033.007.089,0,.068,0,.02.008.088.007.078v.008l.008.087.009.085v0l.017.166,0,.014.017.152,0,.024.009.058.014.115.007.047.011.079.007.044,0,.035.021.131,0,.026.013.077.012.062,0,.014.014.075.014.071v0l.016.074.015.075,0,0,.032.141,0,.014.032.128.005.023.013.047.019.071.009.031.01.037.031.108.009.028.02.067.016.048.045.139,0,.01.045.126v0l.048.126,0,.006.1.239.009.021.017.038.029.06.014.028.015.03.088.172.023.043.009.014.057.1.005.007,0,.007,0,.007,0,.007,0,.007,0,.007,0,.007.005.007,0,.007.005.007,0,.006,0,.009,0,.007.017.027,0,.007.01.014,0,.007,0,.007,0,.007,0,.007,0,.007.005.007.005.006,0,.007,0,.007,0,.007,0,.007.005.007,0,0,0,0,0,.006,0,.007.006.007,0,.007,0,.007,0,.007.006.006,0,.007,0,.007,0,.006.005.007,0,.007,0,.007.005.006.006.007,0,.007.005.007.005.006,0,.007,0,.007.006.007,0,.007.036.045,0,.007.006.007,0,.007a6.151,6.151,0,0,0,2.9,1.928q.429.149.914.278l.034.009.064.017.014,0c.149.037.3.071.455.1,3.386.665,11.269-.125,14.4-.633l1.022-.212,27.058-5.593.339-.07,3.237-.669,2.7-.558.88-.182,12.755-2.637,1.024-.212-.494,2.141-.041.185-.527,2.319-.011.054-.393,1.752-.125.559-.027.122-.428,1.925-.068.31-.074.341-.443,2.029-.033.152-.473,2.192-.007.034-.462,2.165-.049.224-.184.879-.231,1.1-.089.416-.143.691-.229,1.11-.127.609-.021.1-.31,1.514-.163.8-.064.312-.226,1.119-.044.214-.089.446c4.346-20.328,9.206-39.372,14.512-56.9-12.7,52.686-21.782,115.374-25.789,183.512q-1.9,17.577-3.387,35.825-1.666,26.7-2.253,54.434c-1.937,95.059,6.529,182.306,22.214,250.681-2.9-27.585-4.935-56.749-6.009-87.1C1112,878.637,1148.3,956.3,1191.567,956.3c33.882,0,65.379-47.611,88.473-123.9-23.5,97.487-59.377,160.709-98.42,160.709-40.828,0-75.454-69.125-94.64-174.283l-35.031-4.721.13,1.1q.908,7.567,1.894,14.944l-.005,0Zm8.795-385.979q.53-3,1.078-5.96-.547,2.958-1.078,5.96m1.15-6.354q.26-1.414.526-2.818-.267,1.4-.526,2.818M1043.51,584.1l-.05,1.39,23.451,1.619-23.579,1.93v.068l0,.068v.068l0,.067,0,.068v.068l0,.068,0,.068,0,.068,0,.068,0,.068v.068l0,.068,0,.068v.068l0,.068v.068l0,.068,0,.068v.068l0,.068,0,.068,0,.051v.017l0,.068v.068l-.011.273v.068l0,.068,0,.068,0,.068,0,.068,0,.068,0,.068,0,.068,0,.068,0,.068,0,.068,0,.068v.068l0,.068,0,.068v.068l0,.136,0,.068v.07l0,.067,0,.068,0,.136,0,.069v.068l0,.068,0,.068v.068l0,.068,0,.068,0,.068,0,.07,0,.067v.068l2.832,3.159-2.923-.19-.023.73-.014.481-.007.25-.021.731-.04,1.465-.021.733-.008.332-.01.4-.059,2.2-.017.734-.006.183-.013.552-.053,2.208-.016.735v.033l-.014.706-.033,1.475-.016.738-.013.619v.119l-.014.738-.029,1.479-.015.74-.009.471,0,.27-.05,2.966-.006.319-.005.423-.043,2.973,0,.167-.008.576-.036,2.98v.017l-.023,2.222-.009.748,0,.61,0,.136q-.029,3.365-.045,6.744l0,.307v.443l-.01,2.95v.811l-.005,3.014q0,4.984.032,9.937l0,.351q.031,4.847.091,9.666l.007.566q.062,4.8.15,9.578v.112l0,.179q.089,4.709.206,9.385l.017.674q.117,4.617.26,9.2l.026.782q.14,4.47.306,8.909l.037.984q.159,4.208.342,8.387l.062,1.411q.185,4.151.39,8.268l.075,1.484q.2,3.921.42,7.815l.116,2.04q.212,3.646.438,7.267l.144,2.263q.232,3.6.48,7.18l.159,2.268q.243,3.423.5,6.819l.191,2.5q.253,3.254.52,6.484l.247,2.965q.253,2.982.516,5.942l.29,3.2q.255,2.781.52,5.543.161,1.687.326,3.366.284,2.873.578,5.723l.342,3.274q.286,2.7.583,5.39l.374,3.359.213,1.857,34.672,4.45c-10.908-62.155-16.5-136.412-14.914-216.2.5-25.1,1.688-49.66,3.5-73.465a154.538,154.538,0,0,1-25.522-23.646l-.026.253-.032.335-.19,1.981-.118,1.252-.121,1.276-.119,1.281-.095,1.048-.021.233-.117,1.285-.03.324-.119,1.332-.194,2.208-.022.248-.027.308-.175,2.03-.077.9-.032.4-.005.064-.2,2.445-.007.089-.021.247-.028.352-.22,2.733-.016.175-.031.407-.18,2.277-.1,1.247-.033.406-.1,1.315-.068.9-.032.413-.155,2.12-.1,1.38-.034.461-.095,1.323-.065.906-.029.42-.092,1.329-.091,1.329-.016.241-.024.331-.156,2.357-.068,1.019-.176,2.729-.013.239-.168,2.688-.068,1.1-.081,1.346-.08,1.349-.015.237-.063,1.113-.118,2.046-.012.219-.025.44-.149,2.712-.012.236,0,.013-.166,3.139-.013.247-.023.447-.137,2.73-.011.233-.005.089-.149,3.053-.012.278-.022.454-.127,2.747-.009.23,0,.07-.108,2.453-.039.919-.02.461-.115,2.763-.008.227,0,.044-.133,3.4v.02Zm1974.8,408.188a260.871,260.871,0,0,0,43.987-38.4,273.864,273.864,0,0,1-38.435,38.044Zm-1491.68-96.344c-5.4,19.747-11.593,39.24-18.718,58.311-14.452,38.689-34.371,79.976-62.13,110.819-20.689,22.99-47.492,41.608-79.507,41.608a82.344,82.344,0,0,1-11.617-.825c-15.564-2.212-29.857-8.7-42.7-17.623q-2.862-.025-5.724-.064c15.291,14.736,33.879,26.945,55.235,29.981a72.358,72.358,0,0,0,10.187.724c28.874,0,53.1-17.37,71.673-38.01,26.541-29.491,45.639-69.309,59.46-106.3a685.3,685.3,0,0,0,23.842-78.62M2753.244,933.5q-4.8-5.938-9.318-12.034-1.706.32-3.416.632,4.277,6.259,8.859,12.415ZM2080.872,322.8q.683.594,1.289,1.1Zm7.341,6.408c1.75.86,42.791,7.288,47.377,7.981,80.216,12.13,139.9,21.726,220.6,38.3,54.227,11.137,165.686,31.81,220.633,46.314,22.825,6.026,51.629,13.778,82.16,24.638-23-7.7-47.815-14.549-69.27-17.974-8.728-1.394-46.375-6.188-57.2-7.13-1.659-.143-62.846-5.864-48.582,9.286,8.785,9.328,41.708,16.506,54.3,18.985,2.533.5,5.375,1.056,8.465,1.657A818.184,818.184,0,0,0,2657.553,464.9c6.078.3,14.473,2.049,9.636,7.259-5.771,6.218-27.012,4.394-32.375,4.061-20.279-1.268-60.281-5.212-79.5-10.613l-30.01,9.865c50.335,11.661,90.759,12.6,142.094,16.332,23.233,1.691,35.465,2.179,58.363,1.492,3.524-.105,15.466-.453,16.083-5.887,1.205-10.633-41.9-25.76-50.539-29.183,42.058,15.688,85.573,33.177,122.077,48.543l-2.939-1.235c-50.627,4.289-152.621,7.737-181.823,8.672-50.674-11.948-103.332-23.838-157.4-35.53-.4-4.079-.674-8.057-1.156-12.155-18.2.115-35.1.432-51.629.894q-31.9-6.713-64.313-13.309c15.667-3.335,38.807-6.959,58.645-11.017,12.094-2.475,64.431-13.538,25.761-26.043-15.871-5.133-43.155-8.992-74.784-10.008-54.752-1.758-117.136,3.713-130.74,8.645l32.613,8.725s5.938-1.335,20.8-3.07c20.586-2.4,66.763-7.791,85.614,1.558,6.719,3.6.622,6.673-2.959,7.879-13.852,4.664-37.932,5.6-60.624,10.791-2.482.568-5.156,1.153-7.951,1.778-43.446-8.6-87.375-17-131.527-25.141,8.145-7.563,19.981-13.943,33.237-19.2q-1.859.522-3.716,1.068l-3.814-.937c-122.629-34.513-250.509-48.709-369.706-74.99a116.4,116.4,0,0,1-27.04-10.087c19.723-11.878,42.775-19.809,69.975-24.449a354.305,354.305,0,0,1,37.465-4.21c48.246-3.007,79.345-5.951,132.306,27.611,7.968,5.049,16.254,10.507,25.949,14.065,14.038,5.153,29.376,9.922,45.716,14.383Zm97.009,75.147a162.075,162.075,0,0,0-26.659,11.931c-137-25.12-275.921-47.711-408.892-65.946l.007,0a135.027,135.027,0,0,1,31.992-33.521c9.013,4.616,18.456,8.64,28.594,10.874,120.081,26.476,248.978,40.683,372.441,75.758ZM2779.455,564.3a5.29,5.29,0,0,1,.137,1.174c0,7.795-18.427,11.315-41.159,7.859s-41.16-12.571-41.16-20.366a5.123,5.123,0,0,1,1.416-3.466,4.676,4.676,0,0,0-.2,1.352c0,7.68,18.155,16.663,40.552,20.065,21.27,3.233,38.714.267,40.412-6.618M2161.2,427.706a30.148,30.148,0,0,0-1.417,2.794c-5.745,13.05-2.624,29.872,9.2,41.286,36.882,35.591,105.993,38.6,155.44,42.278,61.831,4.6,148.7,5.95,211.4,4.23,25.439-.7,55.977-2.9,84.3-3.815-48.733-10.6-99.135-21.07-150.822-31.309l-41.4.745c-60.96,1.593-117.112,4.778-177.077,15.087-15.948-30.674,6.6-43.661,30.865-50.912q-59.65-10.5-120.491-20.385m231.077,40.563q-26.58-5.022-53.512-9.942c-7.361,3.17-8.584,7.4-9.182,12.573,22.266-.984,42.584-1.894,62.695-2.631m584.3,156.379c23.97,2.943,53.613,8.8,76.928,16.034q11.1,7.857,22.412,16.389c-27.85-14.076-67.9-21.337-100.355-25.323-61.262-45.057-129.412-86.025-189.83-114.434,47.957,12.991,150.491,77.655,190.845,107.334M2771.376,558c-12.961,3.155-68.793-1.658-29.747-9.814-5.184-.013-15.745,1.428-20.094,3.707-2.181,1.143-7.447,4.949-5.153,7.353,6.786,7.112,50.672-.1,54.995-1.247m-155.3-108.37c15.072-.934,7.342-5.145-.969-8.171-11.229-4.089-25.051-6.567-36.735-8.043-10.175-1.286-19.5-1.474-20.775,1.823-1.73,4.468,15.335,9.932,31.672,12.389,11.938,1.8,23.625,2.2,26.806,2M1916.745,180.97q-3.184-.679-6.757-1.282c17.882,20.8,59.961,71.609,58.331,69.562,7.859,4.735,16.33,9.531,25.642,14.306-35.937-10.73-73.912-6.06-115.27-4.086-14.044-26.153-25.489-47.509-35.262-66.187l-2.944-.327q-3.186-.354-6.382-.6c11.9,19.239,25.844,40.948,42.938,67.195-8.293.419-16.646,1.032-24.918,1.925-11.235-20.984-23.307-44.526-35.856-69.846q-.991,0-1.979,0h-.433q-2.262.009-4.524.051c11.012,21.165,23.281,44.224,37.444,70.415-26.1,3.234-51.084,9.47-70.412,21.488q-1.478.92-2.88,1.859c-17.515-32.622-31.831-59.336-44.075-82.738l-.963.287q-6.709,1.989-13.28,4.4c13.011,25.722,27.8,53.844,46.17,87.868-13.037,12.943-18.446,28.709-19.344,49.333l-7.038,1.636c-25.023-47.229-43.5-83.4-60.07-119.158q-7.959,4.9-15.556,10.366l-.41.294c18.265,33.517,39.055,68.138,66.064,110.826-14.157,3.312-28.417,6.676-42.57,9.987-21.212-39.911-36.653-69.93-50.35-99.31q-2.92,2.562-5.8,5.172-2.473,2.247-4.92,4.521l-.742.691c14.933,27.09,32.083,55.386,54.5,90.634q-4.417,1.031-8.814,2.049c-5.164,1.23-9.953,2.371-14.433,3.44-18.679-34.9-32.176-60.523-43.654-84.159q-3.551,3.552-7.015,7.191l-.831.873c12.75,22.154,27.815,46.287,47.635,77.017-3.508.836-6.812,1.623-9.949,2.368-12.6-23.809-25.894-49.762-39.625-77.317q-2.534,2.726-5.009,5.5l-1.01,1.133c11.707,22.318,24.439,46.217,38.537,72.362-38.695,9.11-50.673,11.1-104.647,17.754l.276,1.42c54.369-6.588,68.212-7.791,105.989-16.176l.107-.023.108-.024.107-.024.106-.024.108-.024.108-.024.108-.024.108-.023.108-.024.108-.024.108-.024.108-.024.108-.024.11-.026.108-.024.109-.024.11-.024.035-.007.184-.041.109-.026.109-.024.11-.024.109-.024.11-.025.11-.024.111-.026.11-.024.111-.026.111-.024.111-.026.111-.024.111-.026.111-.024.112-.026.111-.026.112-.025.111-.024.112-.026.052-.01.061-.016.113-.024.112-.026.112-.026.112-.026.113-.026.114-.025.112-.026.112-.026.113-.026.114-.026.113-.026.116-.026.113-.026.114-.027.113-.026.115-.026.115-.026.229-.053.116-.026.229-.053.116-.027.115-.026.117-.027c3.248-.74,6.672-1.523,10.3-2.371l.055-.011.056-.014.054-.013.056-.013.054-.011.055-.014.056-.013.055-.013.054-.013.055-.013.056-.013.055-.013.055-.013.055-.013.056-.013.054-.013.057-.013.056-.014.055-.011.056-.014.055-.013.055-.013.056-.013.055-.013.055-.013.056-.013.056-.013.055-.014.056-.013.055-.013.057-.013.055-.014.057-.011.056-.014.056-.013.056-.013.056-.013.057-.014.055-.013.055-.013h.012l.046-.011.057-.014.055-.013.057-.013.057-.013.055-.013.057-.014.057-.013.057-.013.055-.013.058-.014.056-.013.056-.014.057-.013.057-.013.057-.014.057-.013.055-.013.058-.013.055-.014.057-.013.057-.013.056-.014.057-.013c5.226-1.222,10.862-2.554,17.014-4.018l6.115-1.417,68.566-16.515c.78-17.948,4.962-31.715,14.906-43.4a84.939,84.939,0,0,1,19.7-16.926c36.977-22.969,99.231-24.413,143.378-26.065,41.449-1.529,78.992,1.54,115.409,27.876l.371.267c.711.515,1.418,1.039,2.128,1.573l36.725,29.86c-3.875-3.393-8.945-7.965-14.8-13.327l-26.7-21.706a132.474,132.474,0,0,0-40.778-21.05c-21.094-24.732-44.6-49.177-78.834-83.08m-10.926-1.945c-6.877-1.024-14.641-1.867-23.1-2.549,12.125,14.262,22.522,26.7,31.989,38.4,11.141,6.721,22.19,14.3,34.45,22.3-15.739-22.313-30.11-41.81-43.336-58.156m-24.225-2.639q-3.372-.262-6.879-.494c6.65,9.842,12.644,18.811,18.2,27.289,4.8,2.215,9.451,4.62,14.034,7.184-7.639-10.578-15.939-21.679-25.358-33.979m-48.251-2.064q-5.079-.079-10.265-.121,4.078,6.773,8.5,13.936,4.811.319,9.345.819c-2.644-5.059-5.165-9.922-7.583-14.634m-16.011-.15c-5.7-.018-11.471,0-17.289.055q3.405,6.619,6.973,13.48,3.531-.094,6.922-.1l-1.1-2.226,1.444,2.226q5.137-.011,9.974.16ZM1715.838,177q-7.978.445-15.665.943c4.141,8.451,8.421,17.045,12.911,25.923q6.992-2.594,14.214-4.734c-4.031-7.705-7.838-15.052-11.461-22.132m-61.1,4.6c-8.723.872-16.563,1.783-23.3,2.712,8.228,16.974,16.594,33.311,25.541,49.853q8.1-5.8,16.2-10.774c-6.319-13.737-12.379-27.467-18.442-41.791m-52.212,8.819c-5.867,1.719-12.1,3.706-18.591,5.9,11.295,24.839,22.24,46.913,34.664,69.658q2.428-2.255,4.954-4.552,3.387-3.078,6.737-6c-9.56-20.7-18.343-41.282-27.764-65.011m-22.749,7.326c-7.032,2.435-14.321,5.09-21.727,7.891A836.709,836.709,0,0,0,1598.265,286q3.876-4.074,8.08-8.255c-4.369-9.087-8.459-17.935-12.458-26.968,4.617,7.818,9.544,15.948,14.885,24.574q2.837-2.781,5.828-5.617c-14.08-27.079-24.661-48.712-34.821-71.99m-23,8.373q-4.771,1.815-9.6,3.7c13.111,26.508,27.208,54.155,43.213,84.724q2.948-3.31,6.1-6.672c-12.927-26.007-26.236-53.4-39.716-81.753m269.841-14.24c9.24,18.676,13.048,29.089,7.26,26.133-6.087-9.314-11.8-18.079-17.181-26.375q3.705.026,7.408.153Zm85.153,25.805q2.023,2.828,3.991,5.618c1.3,7.331,2.5,15.049,4.049,22.734-7.235-12.016-14.615-23.725-22.933-36.467q4.1,2.066,8.1,4.313ZM1771.9,286.52c-18.09-27.775-33.392-51.531-46.727-72.813,13.861,28.517,27.248,55.041,39.6,78.353a83.693,83.693,0,0,1,7.126-5.54m-9.84,8.026c-.176.168-.348.338-.519.507Zm34.129,238.972a2.217,2.217,0,0,1-2.181,2.008c-2.785,0-2.894-1.343-1.965-3.592,1.069-2.588.877-4.979,2.055-4.465.827.361,2.343,2.621,2.092,6.05m2.99-6.829a46.728,46.728,0,0,1,.987,9.783c0,11.235-3.594,20.343-8.027,20.343-4.1,0-7.477-7.782-7.964-17.833.846,8.749,3.96,15.24,7.673,15.24,4.365,0,7.9-8.968,7.9-20.029a48.148,48.148,0,0,0-.573-7.5m13.5-4.592c3.717.456,6.574,9.97.543,15.056-6.337,5.344-20.44-14.431-2.35-15.052a12.378,12.378,0,0,1,1.807,0M1746.638,557.6c0-1.059-.017-2.134-.032-3.213-.023-1.627-.063-3.27-.115-4.91l-184.83-74.875Zm1200.623,99.571c-4.363-.26-8.049-.434-10.816-.518-65-1.992-159.37-.331-233.651,4.9,1.829-5.1,1.115-10.608,15.409-11.756,70.714-5.682,148.1-6.983,219.076-4.492,12,.42,13.364,4.93,9.981,11.864M2693.277,452.686c20.021-7.429,48.577-17.744,48.577-17.744-3.15,2.155-30.363,13.823-33.512,15.979,14.26-5.3,52.581-20.123,66.839-25.429a39.582,39.582,0,0,1,1.2-4.474l-17.312,6.957.479-1.063c17.177-37.861,47.346-80.56,91.278-89.586a81.935,81.935,0,0,1,16.511-1.678c48.971,0,87.269,42.487,110.149,80.841a324.433,324.433,0,0,1,18.559,36.275,331.267,331.267,0,0,0-21.027-42.743c-22.577-38.353-60.366-80.84-108.689-80.84a79.89,79.89,0,0,0-16.291,1.677c-43.35,9.026-73.118,51.724-90.069,89.587q-1.919,4.287-3.71,8.657l-8.452,3.4c25.8-66.935,68.489-109.945,118.522-109.945,86.522,0,162.2,128.564,169.031,287.157q.111,2.617.193,5.222l-20.482-13.324c-8.141-134.752-73.092-242.691-147.175-242.691-32.2,0-60.907,20.4-82.8,54.51,5.042-1.373,8.325-.551,12.716,3.109,6.229-2.324,9.979-4.532,14.782-3.288,4.324,1.122,2.389,3.872.141,4.781l-1.4.558c-11.311,4.515-94.99,40.273-94.415,40.043.622-.25,86.737-33.265,86.737-33.265l-80.452,38.79Zm63.037,24.161,19.527-9.869,1.694-.856,1.005-.508a7.706,7.706,0,0,1,3.866,2.1c-2.293,1.2-11.6,6.06-21.056,11.019Zm89.233-36.423,6.5-3.45L2854,451.711l-5.932,3.6Zm-12.184-10.011,11.752,9.638,6.714-3.606-12.312-9.947-7.088,2.735-1.441,2.786Zm78.37,8.442c18.75,18.793-58.806,33.653-100.1,31.665,53.866,10.632,129.722-15.976,100.1-31.665m-48.057-52.3c4.056-1.21,7.638-1.213,8-.007s-2.64,3.162-6.7,4.372-7.638,1.213-8,.007,2.638-3.162,6.7-4.372m-2.138,11.144c.2-.058-.188-.344-.352-.941a1.483,1.483,0,0,1,.043-.872c.483-1.44,4.313-2.891,6.463-4.082,2.258-1.251,2.847-2.252,2.3-2.018-2.056.887-3.958,1.668-5.649,2.2-3.253,1.034-5.824,1.2-7.827-.167a4.653,4.653,0,0,0-.511,1.981c-.142,3.06,2.74,4.693,5.532,3.895m-.787,1.437c-1.9,4.3-.832,9.563,8.146,8.552-6.469.339-9.51-5.928-4.2-9.328a5.917,5.917,0,0,1-3.949.777m-9.159,29.744c-1.936-8.709,1.576-18.408,9.365-22.077-1.227,2.015.16,5.33,5.805,6.409-6.111-.473-16.943.009-15.17,15.668m26.646-28.493c14.125-1.929,19.868,4.075,23.9,17.86-4.437-10.544-6.276-15.567-17.475-14.538.652,7.473-12.452,10.023-16.491,9.477-.009,0,.037-.071.135-.055,5.814.991,20.1-8.077,9.928-12.744m-98.307,64.125a18.8,18.8,0,0,1,8.923-10.478l15.721-7.159a7.98,7.98,0,0,1,4.913.063c.629-.2,1.372-.5,2.2-.863,6.777-2.967,19.378-10.461,23.828-9.946a9.652,9.652,0,0,1,4.454,1.884L2815.293,449.5c-2.982-.287-5.9-1.059-7.9-.234l-15.169,6.577c-3.3,1.7-5.768,6.453-4.665,11a16.974,16.974,0,0,1,7.773-9.388l11.253-5.285c3.152-1.281,4.163-1.058,7.9.435l27.343-12.946c3.1,3.31,4.543,8.188.9,11.391l-18.9,9.824c-2.165,2.073.223,2.054-9.388,6.4a65.6,65.6,0,0,1-9,3.4c-7.857,2.37-19.841.2-25.506-6.166m4.206,5.4c1.392,1.443,1.475,3.186,1.525,5.174l-13.887,7.555-6.094-2.284Zm-1428,29.74q1.3,41.63.324,83.282a1456.793,1456.793,0,0,1-16.276,189.66c-8.064,52.041-19.394,104.835-36.171,154.806a499.73,499.73,0,0,1-23.931,59.5c-7.6,15.638-16.431,31.162-27,45-13.967,18.291-33.758,37.008-57.9,38.531,12.815,5.95,24.866,5.485,38.488-.409,44.727-19.351,73.158-109.211,84.627-151.743,12.441-46.137,20.89-93.855,26.947-141.226a1598.944,1598.944,0,0,0,12.179-169.647q1.11-53.853-1.292-107.758m-95.891-358.127,7.912.456c67.489,34.535,115.474,228.958,110.3,464.558-.948,43.142-3.623,84.9-7.772,124.565,3.727-40.191,5.915-82.523,6.311-126.253,2.143-236.195-48.583-430.333-116.751-463.325m34.481,1.985,19.432,1.119c64.6,48.379,112,233.5,111.175,456.815-.284,76.874-6.249,149.586-16.591,214.044,8.5-60.982,13.155-128.807,12.974-200.281-.6-240.324-55.678-437.838-126.99-471.7m43.71,2.516,12.724.733a136.754,136.754,0,0,1,19.406,22.723c9.365,13.484,17.113,28.373,23.761,43.362a483.668,483.668,0,0,1,20.622,56.555c6.739,22.365,12.261,45.138,16.911,68.026,5.232,25.74,9.37,51.722,12.652,77.78q5.387,42.755,7.849,85.823,2.714,46.02,2.5,92.157-.207,55.393-4.519,110.689-.117,1.474-.237,2.948,3.195-49.919,3.022-99.984a1430.19,1430.19,0,0,0-10.575-173.112c-3.2-25.615-7.18-51.155-12.148-76.489-4.466-22.775-9.73-45.437-16.078-67.763a557.525,557.525,0,0,0-19.534-57.529,324.143,324.143,0,0,0-22.521-45.791c-8.492-14.025-19.862-29.5-33.835-40.126m29.185,1.68,3.837.221a75.282,75.282,0,0,1,11.659,2.018C1480.8,222.839,1503.131,549.392,1488.8,682.96c1.322-31.865.178-63.5-.557-95.406-1.274-55.273-4.065-111.045-11.827-165.828-11.1-78.376-29.323-166.749-70.876-234.688-8.8-14.381-22.508-29.663-37.92-39.329m40.8,13.311q1.037.652,2.071,1.339l.372-32.2c9.861-4.627,24.827-8.9,37.471-11.963a300.351,300.351,0,0,1,39.183-6.271V133.9c-17.438,2.27-34.252,5.33-48.053,8.5-6.283,1.443-17.095,3.354-20.6,7.833-1.616,2.066-1.584,10.822-1.48,17.089a139.874,139.874,0,0,1,22.437,22.3c69.843,111.84,85.717,376.045,76.221,496.4,1.321-31.865.176-63.5-.558-95.406-1.273-55.273-4.064-111.044-11.826-165.826-11.1-78.378-29.322-166.751-70.877-234.69a131.987,131.987,0,0,0-24.362-29.082m-173.4,417.124c6.1,0,11.042,15.054,11.042,33.625s-4.943,33.624-11.042,33.624c-5.114,0-9.417-10.589-10.671-24.959a44.677,44.677,0,0,0-16.128,5.373l-.013.849a609.978,609.978,0,0,0,2.577,67.277c.988-14.276,7.146-26.01,24.478-32.073a64.932,64.932,0,0,1,11.624-2.815c-6.014,5.827-23.995,21.6-28.778,84.765,2.17,10.717,4.765,21.417,7.941,31.911a291.927,291.927,0,0,1-9.317-31.488,441.618,441.618,0,0,1-9.58-58.41c-1.917-19.134-2.813-38.4-2.819-57.642q-1.186.792-2.338,1.641c-4.216-13.237-7.4-46.862,0-81.327,1.941,5.51,3.8,10.609,5.687,15.262q.8-7.463,1.8-14.9c1.531-11.373,3.426-22.753,5.776-34.029-7.162-22.447,7.858-50.66,19.358-77.5-1.343,7.979-2.376,15.354-3.145,22.171,6.2-15.4,14.357-30.847,24.573-41.074q.727,2.6,1.414,5.219c-7.7,9.59-13.784,21.074-18.662,32.264-3.372,7.732-6.328,15.7-8.948,23.784-1.769,39.662,6.932,54.566,10.255,60.864a60.77,60.77,0,0,1-10.5-6.315,42.4,42.4,0,0,1-10.8-11.65c-2.557,12.713-4.574,25.548-6.155,38.4q-.688,5.576-1.263,11.166c4.146,8.555,8.746,15.064,14.851,19.243,2.016-8.055,5.2-13.254,8.786-13.254m-1.338,6.162c4.622,0,8.367,12.3,8.367,27.462s-3.746,27.462-8.367,27.462-8.365-12.294-8.365-27.462,3.745-27.462,8.365-27.462m39.78-96.814q.2,1.485.4,2.979-.2-1.5-.4-2.979m.569,4.284q.194,1.493.383,2.993-.188-1.5-.383-2.993m.509,4q.558,4.513,1.07,9.111c-8.368,7.429-13.485,19.677-20.514,46.474-8.123-38.29.151-80.959,10.875-107.277-7.838-36.8-18.449-66.563-30.917-86.11l-.02-.031q-.715-1.122-1.441-2.2l-.03-.045-.5-.737c-.44-.642-.883-1.268-1.328-1.884l-.368-.51c-.453-.618-.907-1.227-1.364-1.819-.209-.27-.419-.537-.627-.8q-.625-.788-1.251-1.543-.374-.454-.752-.892-.53-.616-1.062-1.21-.494-.552-.992-1.083c-.3-.319-.6-.632-.9-.94q-.532-.547-1.072-1.071c-.281-.273-.561-.541-.843-.805q-.588-.549-1.183-1.071c-.239-.21-.478-.419-.719-.622q-.673-.571-1.349-1.1c-.21-.166-.42-.328-.632-.488q-.737-.56-1.481-1.079l-.455-.311q-.826-.558-1.661-1.062l-.363-.216c-.57-.334-1.139-.65-1.713-.946l-.3-.152q-.9-.458-1.815-.846l-.249-.107q-.953-.4-1.914-.728l-.166-.055c-.659-.22-1.32-.417-1.985-.586l-.076-.02c-.682-.172-1.366-.314-2.054-.432l-.1-.017c-.69-.115-1.38-.2-2.074-.263l-.083-.006c-.705-.058-1.414-.089-2.125-.089q-1.091,0-2.175.091t-2.163.273c-.72.119-1.437.271-2.151.45s-1.428.388-2.138.626-1.42.505-2.125.8-1.409.62-2.111.973-1.4.733-2.1,1.142-1.39.846-2.081,1.311-1.38.956-2.066,1.474-1.369,1.066-2.048,1.639-1.356,1.173-2.031,1.8-1.346,1.279-2.013,1.958-1.333,1.383-1.995,2.114-1.319,1.488-1.975,2.269-1.306,1.589-1.955,2.421-1.292,1.69-1.934,2.571-1.278,1.789-1.911,2.719-1.265,1.886-1.891,2.865-1.249,1.981-1.868,3.007-1.234,2.076-1.843,3.149h0q-.915,1.61-1.82,3.288t-1.794,3.425q-.89,1.746-1.768,3.56t-1.742,3.692h0q-.866,1.881-1.715,3.824t-1.687,3.95q-.836,2.008-1.659,4.076t-1.63,4.2q-.808,2.132-1.6,4.322t-1.569,4.441h0q-.776,2.249-1.538,4.558t-1.506,4.674q-.744,2.364-1.473,4.785t-1.442,4.9q-.711,2.477-1.407,5t-1.372,5.111q-.676,2.583-1.337,5.215t-1.3,5.317q-.641,2.684-1.263,5.417h0q-.622,2.732-1.225,5.513h0q-.6,2.782-1.186,5.61h0q-.583,2.828-1.148,5.7t-1.11,5.791h0q-.545,2.92-1.07,5.882t-1.029,5.969q-.505,3.005-.989,6.053t-.945,6.135q-.46,3.088-.9,6.215h0q-.441,3.126-.858,6.293t-.814,6.368q-.4,3.2-.77,6.442t-.724,6.513q-.351,3.274-.677,6.581h0q-.328,3.308-.631,6.649t-.582,6.713q-.281,3.371-.534,6.775h0q-.256,3.4-.485,6.835h0q-.229,3.433-.434,6.893t-.385,6.95q-.178,3.486-.334,7t-.282,7.054q-.127,3.54-.229,7.1t-.176,7.152q-.074,3.586-.122,7.2-.042,3.214-.06,6.408l-.008,1.322q-.015,3.08-.01,6.144l0,1.1q.01,3.208.037,6.4l0,.321q.033,3.094.084,6.169l.017,1q.054,3.011.127,6l.036,1.377q.079,3,.175,5.978l.03.866q.094,2.769.2,5.522l.041,1.07q.123,2.965.264,5.905l.059,1.205q.148,2.973.312,5.921l.046.805q.157,2.722.328,5.421l.066,1.042q.181,2.8.382,5.58l.1,1.384q.205,2.775.425,5.529l.1,1.247q.208,2.545.43,5.072l.08.9q.234,2.63.487,5.234l.153,1.583q.25,2.558.518,5.092l.167,1.566q.256,2.4.525,4.773l.155,1.346q.26,2.245.532,4.47l.193,1.577q.3,2.409.612,4.792l.226,1.69q.313,2.345.64,4.669l.2,1.4q.286,1.993.58,3.97l.238,1.585q.347,2.285.707,4.543l.268,1.661c.243,1.5.49,3.006.743,4.492l.243,1.42q.309,1.8.63,3.586c.1.555.2,1.115.3,1.668q.376,2.07.765,4.115l.344,1.809q.4,2.07.808,4.116c.112.559.227,1.113.34,1.67q.322,1.576.649,3.134l.414,1.95q.381,1.783.773,3.544l.39,1.741q.432,1.919.876,3.812l.4,1.692q.358,1.493.72,2.969.265,1.073.531,2.14.368,1.47.745,2.921l.445,1.715q.461,1.744.929,3.463.25.911.5,1.814.353,1.276.714,2.537.341,1.193.685,2.368.355,1.218.717,2.422c.166.555.333,1.11.5,1.661q.488,1.6.989,3.178c.178.564.358,1.124.538,1.682q.422,1.308.847,2.594.348,1.046.7,2.076.367,1.077.736,2.138c.179.514.357,1.029.537,1.538.35.987.7,1.959,1.059,2.926.193.525.386,1.048.582,1.567q.5,1.335,1.007,2.645c13.629,35.183,30.89,56.052,49.9,56.052,9.835,0,19.345-5.6,28.253-15.864-31.466-24.659-55.215-108.962-60.381-215.33,8.041,106.066,30.408,182.733,64.573,210.1,15.689-21.121,29.267-56.964,39.061-102.229q-.275,1.276-.555,2.543c-10.917-15.172-20.514-28.313-22.259-48.787a103.807,103.807,0,0,1,10.61-56.583c2.8,27.462,7.837,37.793,21.687,47.086-2.286,17.729-5.09,34.589-8.346,50.364,7.568-36.656,12.694-79.163,14.532-124.85q-.263,6.534-.617,12.979c-11.213-1.941-15.005-4.627-26.32-13.326,2.087-6.117,3.387-14.711,3.387-24.229a89.845,89.845,0,0,0-1.683-17.844,51.625,51.625,0,0,0,25.983,1.744v.958a839.438,839.438,0,0,0-6.071-100.755m-9.307,265.784q-.335,1.612-.674,3.212.341-1.6.674-3.212m-40.817,108.1q-.649.854-1.3,1.671.654-.818,1.3-1.671m-1.9,2.4q-.753.924-1.518,1.8c.508-.586,1.014-1.185,1.518-1.8M1199.3,292.109c54.063,0,95.984,141.679,93.633,316.452s-48.085,316.451-102.149,316.451-95.983-141.679-93.632-316.451,48.086-316.452,102.149-316.452m75.594,483.376c-18.632,86.58-49.623,143.821-83.983,143.821-51.129,0-91.391-126.729-93.62-288.32,3.634,158.855,43.754,282.106,94.445,282.106,33.69,0,64.174-54.455,83.158-137.607M1199.3,295.917c-14.842,0-27.13,12.253-35.384,23.335a167.007,167.007,0,0,0-16.63,28.526,320.5,320.5,0,0,0-14.827,38.186c-10.429,32.307-17.345,66.4-22.188,99.963q-3.5,24.262-5.634,48.766,2.039-21.726,5.136-43.295c4.843-33.566,11.76-67.656,22.187-99.96a320.452,320.452,0,0,1,14.829-38.188,166.963,166.963,0,0,1,16.63-28.526c8.255-11.082,20.542-23.335,35.384-23.335,14.76,0,26.67,12.131,34.676,23.281a161.282,161.282,0,0,1,15.849,28.5,311.936,311.936,0,0,1,13.8,38.176c9.577,32.365,15.564,66.461,19.494,99.95a945.136,945.136,0,0,1,6.011,122.682c-.331,24.63-1.515,49.332-3.678,73.932,2.48-26.407,3.82-52.947,4.176-79.4a945.372,945.372,0,0,0-6.01-122.682c-3.932-33.49-9.919-67.587-19.494-99.952a312.459,312.459,0,0,0-13.8-38.176,161.293,161.293,0,0,0-15.848-28.5c-8.005-11.15-19.915-23.281-34.677-23.281m91.835,523.542c3.689-17.656,6.844-35.425,9.575-53.252,8.944-58.378,13.444-117.492,14.566-176.526a1345.2,1345.2,0,0,0-6.286-162.132c-2.416-23.659-5.552-47.252-9.638-70.682-3.6-20.663-7.935-41.215-13.352-61.482a431.76,431.76,0,0,0-16.573-50.545c-5.289-13.065-11.458-26.024-19.218-37.817-9.367-14.239-24.033-31.02-42.574-31.02-17.678,0-32.352,15.24-42.025,28.51a203.074,203.074,0,0,0-18.728,32.2c10.714-13.337,25.078-25.476,42.515-25.476,21.765,0,38.2,18.921,48.857,35.862,7.995,12.712,14.314,26.576,19.727,40.56a469.733,469.733,0,0,1,16.7,53.261c5.424,21.228,9.757,42.727,13.359,64.335,4.078,24.452,7.206,49.058,9.614,73.728a1465.314,1465.314,0,0,1,6.259,168.792c-.846,46.44-3.648,92.864-8.764,139.034q-1.81,16.344-4.017,32.645m325.406-546.015c11.752,22.509,25.929,48.856,44.209,82.9-20.2-30.911-36.3-55.8-49.8-77.493l.642-.629q2.456-2.407,4.947-4.779M531.62,316.149c5.7,51.253,14.025,148.534,14.137,219.249.114,71.544-9.639,188.781-8.244,182.715,11.135-48.486,14.092-136.858,14.844-179.484,1.208-68.541-10.1-192.383-20.736-222.481M488.239,707.868q-.524,3.3-1.066,6.528l0,.007c-2.591,15.382-5.512,29.413-8.708,41.815l.007-.016c-9.725,37.741-21.989,60.432-35.153,60.432-29.437,0-52.42-113.459-52.064-255,2.784,124.843,27.825,221.149,59.323,221.149,9.006,0,17.644-7.889,25.513-22.054-3.489,3.869-7.114,5.919-10.824,5.919-25.3,0-44.949-95.286-43.892-212.829S443.8,340.988,469.1,340.988c4.286,0,8.409,2.743,12.3,7.857,3.171,12.8,6.012,27.42,8.462,43.531a110.062,110.062,0,0,0-5.871-13.745l-.57-1.126c-4.472-8.156-9.369-12.638-14.533-12.638-22.46,0-41.428,84.6-42.366,188.95S443.02,742.768,465.48,742.768c.24,0,.479-.01.717-.029h0c-8.4-13.532-31.922-121.715-19.709-198.843-3.411,54.213,1.058,141.324,28.409,193.824a42.964,42.964,0,0,0,5.9-8.584c.828-1.525,2.156-4.507,3.6-7.945-15.55-47.662-26.706-137.822-16.276-213.977.8,19.7-6.547,103.094,20.124,200.656m-9.651-310.929a919.889,919.889,0,0,0-18,174.137c-.168,18.64.254,36.643,1.183,53.653-1.746-22.073-2.6-46.231-2.377-71.558.586-64.939,8.152-122.22,19.2-156.231m16.9,42.579q.5,5.493.947,11.124c-9.412,15.429-16.2,59.393-16.2,111.231,0,38.526,3.751,72.705,9.542,94.054-7.5-12.506-13.023-55.439-13.023-106.49,0-60.848,7.85-110.175,17.533-110.175a3.064,3.064,0,0,1,1.205.256m4.017,70.373q.284,10.921.378,22.135c-1.522-7.607-3.788-12.436-6.32-12.436-4.353,0-7.922,14.274-8.265,32.42.327-24.617,5.123-44.151,10.991-44.151a4.287,4.287,0,0,1,3.216,2.032M499.385,580q-.3,10.361-.765,20.475a3.474,3.474,0,0,1-2.327,1.052c-5.757,0-10.481-18.8-10.968-42.75.456,17.642,3.972,31.366,8.242,31.366,2.268,0,4.323-3.872,5.818-10.143M454.8,250.009c22.8,0,40.443,79.484,44.062,187.636-8.188-85.94-26.052-144.907-47.273-144.907-18.261,0-34.793,43.658-45.212,110.6,9.408-90.239,28.107-153.328,48.423-153.328m27.742,103.981q.273,1.2.541,2.412c-3.489-5.336-7.058-8.827-13.385-8.827-8.546,0-18.272,12.915-28.841,45.05,7.292-30.612,17.211-49.6,27.977-49.6,4.869,0,9.487,3.886,13.707,10.97M467.234,225.113a5.542,5.542,0,0,0,.468-.646c3.027-6.273,8.668-13.284,15.249-8.89,15.514,10.361,33.684,92.181,33.326,182.857-6.471-109.821-28.526-195.627-49.043-173.322m46.883-22.2c2.138-.048,3.842-.077,4.923-.087q2.733-.03,5.455-.028c49.68,57.27,52.375,335.3,48.345,428.148,1.464-78.683-6.8-399.558-58.724-428.033m31.3.338q1.474.064,2.942.136c1.922.094,4.323.234,7.065.415,29.432,38.821,51.2,176.782,51.2,341.063,0,28.742-.672,56.667-1.928,83.408.488-24.224.525-49.36.053-75.149-3.219-176.516-28.822-322.854-59.331-349.874m31.731,2.319c3.6.348,7.261.73,10.857,1.144,52.9,69.542,56.342,323.852,51.379,423.218.519-24.224.556-49.36.056-75.149-3.394-175.145-30.208-320.568-62.292-349.213m34.506,4.776A50.861,50.861,0,0,1,617.659,212c36.373,63.184,51.145,240.19,51.145,332.8,0,99.349-.7,56.666-2,83.407.507-24.224.543-49.36.055-75.149-3.117-164.466-26.411-302.742-55.205-342.709M924.465,388.256c27.2-1.416,49.147.165,49.022,3.53s-22.279,7.243-49.478,8.66-49.147-.165-49.021-3.53,22.277-7.243,49.477-8.66m115.449,201.064-.361.03.341.378Zm823.906,281.81a17.849,17.849,0,0,1,3.949,9.428l36.339-77.074Zm1162.173-65.7c19.845-11.9,41.314-40.352,50.46-62.051,7.357-17.457,14.407-51.473,1.092-67.993,11.147,24.831-1.8,61.07-14.4,83.2-9.53,16.745-21.489,35.306-37.15,46.84m-496.7-105.448c-23.14,26.142-20.289,92.983,6.252,116.582,32.194,28.625,149.913,27.809,190.146,26.29,34.2-1.292,146.9-8.228,224.134-20.459,37.506-5.939,67.81-7.766,91.641-39.927q.863-1.165,1.72-2.354c-23.52,29.642-53.172,31.533-89.631,37.307-77.236,12.231-188.068,18.171-222.267,19.463-40.232,1.519-157.954,2.336-190.147-26.288-15.073-13.4-22.867-41.938-21.95-62.788.717-16.287,1.654-34.509,10.1-47.827M1525.936,815.58l116.857,20.287-58.5-2.388,251.491,43.772-314.469-42.809q2.411-8.968,4.617-18.861M1746.28,544.36a136.482,136.482,0,0,0-2.234-18.746q-49.026-21.263-97.858-42.9a23.449,23.449,0,0,1-1.443,1.885l-9.9-4.071L1633,483l-20.23-8.319.79-2.906-36.63-15.063-2.242,2.841-12.757-5.245.372-2.7-18.184-13.4q-.236,1.293-.532,2.544c-1.887,7.977-2.884,11.038-6.967,14.563q.3,2.5.584,5.033c63.244,25.79,161.025,64.854,209.079,84.013m274.11,246.615c-2.365-3.175-3.132-9.145-3.732-12.428-3.271-17.852-5.356-50.272-5.8-57.383-1.873-29.91.395-69.049,8.659-103.1,2.664-10.975,9.2-35.822,17.487-43.029a19.524,19.524,0,0,1,10.63-4.995,19.191,19.191,0,0,0-15.6,4.995c-6.785,5.9-13.458,31.322-15.716,40.624-8.265,34.056-10.531,73.194-8.658,103.105.779,12.466,3.116,67.115,12.734,72.214m1.656.77c9.015,5.51,32.56,3.125,48.129.508,9.936-1.67,12.8-1.475,20.968-8.207a111.428,111.428,0,0,1,13.273-9.861c20.258-12.522,55.244-28.783,74.566-34.809,4.961-1.548,8.244-2.686,10.434-4.647l.013-.013a9.3,9.3,0,0,0,.812-.825l.011-.013q.251-.294.481-.611l0-.007q.224-.309.424-.643l.031-.05c.132-.223.26-.456.379-.7l.011-.023a12.9,12.9,0,0,0,.67-1.644h0c.047-.143.092-.29.138-.439l.01-.033c.186-.616.348-1.282.49-2l.008-.04c.07-.355.137-.726.2-1.11l.007-.046.082-.551.006-.044.066-.49v0c1.083-8.357.563-22.993,1.64-50.614a11.333,11.333,0,0,0-3.97-9.645c-16.968-15.14-40.039-23.432-56.545-36.616-8.885-7.1-19.492-22.9-28.051-32.416a34.415,34.415,0,0,0-5.171-4.643c-7.125-5.229-16.47-9.024-24.4-13.048-12.6-6.395-22.064-10.734-30.425-9.215,7.548-.043,16.128,3.961,27.078,9.519,7.927,4.024,17.271,7.82,24.4,13.05a34.308,34.308,0,0,1,5.171,4.641c8.561,9.511,19.166,25.318,28.052,32.416,16.506,13.185,39.577,21.476,56.545,36.616a11.334,11.334,0,0,1,3.969,9.646c-1.241,31.905-.357,46.482-2.271,54.073l-.047.682c-2.2,1.354-5.168,2.356-9.211,3.616-20.139,6.28-56.6,24.721-77.714,37.77a116.225,116.225,0,0,0-13.832,10.277c-8.517,7.017-11.5,6.814-21.855,8.553-13.626,2.29-33.116,4.41-44.575,1.63m23.078-6.915c-5.582-25.211-.42-176.843,12-190.445a12.024,12.024,0,0,1,4.3-3.287,6.786,6.786,0,0,0-2.61.055,10.932,10.932,0,0,0-5.039,3.535c-12.439,13.622-17.6,165.692-11.977,190.564,1.131-.129,2.241-.271,3.323-.423m1067.25-48.4C3079.64,876.38,3000.98,974.469,2908.027,974.469c-38.479,0-74.89-16.822-106.909-46.45,30.113,22.169,63.379,34.512,98.248,34.512,95.485,0,176.7-92.548,213.008-226.106M2956.647,186.682l3.589-.1c118.093,20.4,212.129,193.394,214.548,403.831,1.007,87.724-14.056,168.944-40.486,235.32,24.555-66.127,37.969-146.4,35.909-232.958-4.961-208.623-97.992-380.742-213.561-406.095m77.028.791q3.241.462,6.461,1.055a193.953,193.953,0,0,1,37.518,21.092c28.8,20.507,52.813,47.9,72.195,76.748,24.555,36.546,43.106,77.418,56.637,118.885a629.092,629.092,0,0,1,28.633,146.7q2.373,30.956,1.829,62.035-.548,29.7-3.937,59.271-1.548,13.341-3.721,26.645,1.811-12.729,3.053-25.5a659.842,659.842,0,0,0-29.3-264.765c-13.621-41.242-32.022-81.819-56.083-118.432-20.135-30.637-45.21-59.891-75.381-81.818a202.136,202.136,0,0,0-37.9-21.922m-34.972-.132c21.6,7.233,41.417,19.232,59.076,33.894,29.073,24.14,52.7,55.636,71.319,88.333,22.258,39.077,38.665,82,50.267,125.38a709.1,709.1,0,0,1,16.4,275.792q-1.865,13.166-4.288,26.284,2.822-13.677,5.012-27.442,4.858-30.436,6.814-61.247,2.082-32.14,1.188-64.384c-1.39-51.609-8.3-103.447-21.471-153.4-11.5-43.613-28.046-86.844-50.8-125.874-17.957-30.806-40.615-60.326-68.383-82.93-19.314-15.72-41.189-28.086-65.138-34.411M2641.584,387.6,2631.2,432.059c1.572.522,3.531,1.177,5.641,1.885,4-22.3,10-52.034,13.946-65.369,1.094-3.7,4.749-13.288,6.217-17.285-8.831,10.725-12.062,23.061-15.419,36.311m59.57-46.309c-5.341-1.678-10.909-2.808-16.143-2.353-15.969,1.39-23.463,12.5-30.217,27.264,4.432-25.734,22.369-36.4,46.36-24.911m353.851,175.158c-26.076-145.09-102.152-250.7-190.775-250.7-75.008,0-139.348,75.663-171.2,186.878l-.873-.217.028-.139c16.374-72.646,72.185-204.781,158.9-211.189,116.238-8.591,181.063,135.453,203.927,275.371M2972.4,853.026c-22.917,27.768-50.751,43.841-81.33,43.841a90.374,90.374,0,0,1-27.164-4.258A888.515,888.515,0,0,0,2972.4,853.026M893.232,431.235c-.043,0,6.193.346,7,11.465,6.031.082,12.747.3,18.777.383,1.8-5.208,3.078-6.746,7.089-10.757a134.244,134.244,0,0,0-32.867-1.092M1534.688,199.55c-2.148,7.713-3.625,13.132-4.138,16.909,5.414-2.206,10.858-4.384,16.279-6.506-1.965-7.6-4.574-15.392-7.3-15.969-2.481-.527-3.8,1.817-4.841,5.566M1381.2,122.257c3.749,0,6.568,4.835,6.3,10.8s-3.528,10.8-7.276,10.8-6.568-4.835-6.3-10.8,3.528-10.8,7.276-10.8m-19.584-6.135c3.138,0,5.408,4.826,5.073,10.777s-3.154,10.778-6.291,10.778-5.409-4.825-5.073-10.778,3.153-10.777,6.291-10.777m101.42,103.091c13.079,6.171,32.645.406,41.7-10.446,11.917-14.282,27.106-56.37,47.666-24.783l4.267,8.154-.686-4.528-1.119-39.9c-1.189-.168-2.354-.314-3.493-.446l-.256,33.757c-12.185-17.1-22.456-8.52-31.267,3.916l.26-38.529-.723.035c-1.672.082-3.35.186-5.023.3l-1.115,44.958a20.254,20.254,0,0,1-2.168,6.872l-.046-51.574q-1.565.132-3.128.281c.338,16.848,3.317,55.69-10.092,65.5V148.429q-1.261.164-2.522.338v65.2c-34.358,20.916-49.205-25.4-45.273-55.538a5.18,5.18,0,0,0-1.777,2.385c-.819,2.262-.454,30.555-.326,39.6q2.756,3.964,5.431,8.239,2.2,3.512,4.348,7.211a23.185,23.185,0,0,0,5.341,3.348m95.239-24,2.64,5.046,2.283-.848v-50.3q-2.5-.483-4.923-.877Zm46.466-9.625-.23-21.2c-7.382-4.871-16.586-8.682-25.986-11.508v41.042c8.642-3,17.4-5.855,26.216-8.33m26.786-67.253a51.031,51.031,0,0,0-7.087-5.053,123.692,123.692,0,0,0-12.189-6.788l-.083,12.307c7.837,3.7,14.756,8.11,19.255,13.041ZM1611.989,144.5c6.023,2.767,12.328,6.324,16.986,11.167a21.7,21.7,0,0,1,2.242,2.739l.162-21.1c-4.64-4.778-11.53-9.175-19.253-12.915Zm-161.081-31.654V98.334q-.641.151-1.275.3c-13.115,3.173-28.732,7.657-38.553,12.483l-.166,14.487c9.833-4.781,25.3-9.215,38.3-12.362q.835-.2,1.689-.4M1614,93.882a76.03,76.03,0,0,1,6,13.633c-23.6-13.595-50.09-18.4-77.2-19.572-31.4-1.36-66.493,1.606-93.172,8.06-2.412.584-4.909,1.211-7.439,1.877,40.3-19.8,99.4-25.784,139.5-17.286-7.108-22.774-29.545-47.253-62.677-59.722,36.38,7.791,66.064,33.644,91.615,70.644,1.178.762,2.316,1.543,3.369,2.367M1416.356,1.556a92.6,92.6,0,0,1,30.455,10.184,62.631,62.631,0,0,1,7.491,4.772q-2.476.571-4.927,1.228c-7.725-5.144-22.7-16.126-49.83-16.487a98.953,98.953,0,0,1,16.811.3M2363.424,618c74.68,14.759,240.49,36.406,324.063,30.458-120.508,9.784-233.205,1.637-324.063-30.458m-687.879.143c1.2.038,2.105,2.214,2.02,4.856s-1.131,4.754-2.331,4.715-2.1-2.215-2.019-4.857,1.13-4.752,2.33-4.714m8.955-19.4c1.2.038,2.106,2.214,2.019,4.856s-1.13,4.753-2.331,4.714-2.105-2.212-2.019-4.854,1.129-4.753,2.332-4.715m-5.282-17.632c1.194.135,1.924,2.374,1.63,5s-1.5,4.65-2.695,4.517-1.925-2.374-1.63-5,1.5-4.65,2.7-4.516m8.57-82.863-40.783-16.771c-.132.21-.266.416-.4.619l40.849,17.715Zm25.131,80.06a109.89,109.89,0,0,1-15.2-.943,327.42,327.42,0,0,0-3.474,45.676c29.9-1.427,54.779-3.357,79.33-6.044.476-6.041.969-12.328,1.448-18.928.6-8.2.614-14.719-.644-16.4-2.581-3.45-10.593-3.179-20.576-3.476-4.026-.119-40.786.159-40.878.114m-21.3-3.048c-5.59-3.459-12.639-10.062-14.864-16.851l-78.258-43.058-56.272,1.4c1.441,21.866,2.377,44.566,2.745,67.861q.328,20.595.051,40.542c32.169.621,64.913.535,96.574-.211,6.833-.16,13.72-.278,20.542-.582,3.1-.139,9.012-.585,9.054-.395,1.383,6.2,6.04,6.851,7.812-.3,0,0,3.44-.112,5.062-.153.119,2.294.312,5.12.586,8.356-47.038,2.154-94.231,4.09-139.758,1.14q-.058,2.967-.128,5.915c39.7-.243,93.715-1.336,140.2-3.591l.141,1.46c1.2.04,2.111,2.2,2.041,4.843a7.434,7.434,0,0,1-1.076,3.957c2.247,18.6,6.467,42.836,13.672,61.963-9.08-37.8-9.693-57.106-9.481-71.315a467.614,467.614,0,0,1,1.361-60.982m2.817,59.593c28.326-1.509,53.129-3.48,69.065-5.989-22.844.453-45.974,1.494-69.176,2.56.028,1.147.068,2.287.111,3.429M1579.361,504.829l-39.83-21.914q1.051,11.252,1.919,22.866Zm290.978-40.414a30.868,30.868,0,0,0-2.256-7.786,16.153,16.153,0,0,0-3.155-4.812c2.632-.045,5.193-.063,7.653-.047.287.371.579.774.883,1.215a27.957,27.957,0,0,1,4.318,10.453q-3.41.464-7.443.977m-5.411-12.6c-19.077.324-41.854,2.157-55.971,4.484a14.031,14.031,0,0,0-5.33-.845,183.63,183.63,0,0,1,22.313-3c13.145-1.039,26.336-1.454,37.979-1.572a13.247,13.247,0,0,1,1.01.936m-1.01-.936c-4.005-3.34-9.175-3.564-13.868-3.7,1.917-.057,8.343-.612,13.881.175,3.928.558,5.867,1.232,7.883,3.488-2.533,0-5.172.011-7.9.04m-277.4-20.115-.495,3.061-.462,2.858Zm204.5,92.968c.031.281.057.561.075.835-.018-.274-.044-.554-.075-.835m-.673,7.613-.04.122Zm-.151.452-.013.034,0-.007,0-.006,0-.007,0-.006Zm.03-.085v0Zm.042-.128v-.006l0-.007,0-.007v-.006l.012-.034,0-.007v-.007l0-.007,0-.013v-.007l0-.007,0-.007,0-.006,0-.014,0-.007,0-.006,0-.007,0-.007,0-.007,0-.006,0-.007.019-.057Z" transform="translate(164.259 0.426)" fill="#0a0a0a" fill-rule="evenodd"/>
    <path id="Path_12" data-name="Path 12" d="M1564.99,711.2q251.895,22.827,501.21,67.134c217.167,38.239,432.238,87.628,644.96,145.518L2969.8,982.559c-107.3-29.721-214.789-58.752-322.74-86.036-125.646-31.756-251.879-61.119-378.918-86.777C2135.671,782.99,2002.436,760.3,1868.45,742.58q-151.281-20-303.46-31.38" transform="translate(657.034 298.579)" fill-rule="evenodd"/>
    <path id="Path_13" data-name="Path 13" d="M457.3,668.157q302.712,57.19,599.779,140.116c215.136,59.69,431.328,119.013,637.435,204.721,510.429,212.256,536.985,191.512,434.125,148.749-126.6-48.605-253.516-96.4-381.193-142.121-148.608-53.222-298.2-103.612-449.217-149.6-157.468-47.96-316.339-91.085-476.7-128.262q-181.06-41.975-364.224-73.6" transform="translate(191.987 280.508)" fill-rule="evenodd"/>
  </g>
</svg>
