<svg xmlns="http://www.w3.org/2000/svg" xmlns:xlink="http://www.w3.org/1999/xlink" width="2106.554" height="853.83" viewBox="0 0 2106.554 853.83">
  <defs>
    <clipPath id="clip-path">
      <rect id="Rectangle_1" data-name="Rectangle 1" width="2106.554" height="853.83" fill="none"/>
    </clipPath>
  </defs>
  <g id="Group_2" data-name="Group 2" clip-path="url(#clip-path)">
    <path id="Path_9" data-name="Path 9" d="M1648.1,735.891c148.161-4.883,267.821.134,267.821,11.283,0,5.428-28.363,11.316-74.57,16.517-63.441-11.554-128.6-21.221-193.251-27.8m183.362,28.873c-29.433,3.087-65.13,5.894-104.768,8.167-66.919-13.013-135.335-23.73-202.7-30.7,34.871-2.491,74.059-4.58,115.544-6.043,64.192,6.748,128.772,16.635,191.926,28.581M1708.84,773.9c-18.9.979-38.577,1.833-58.792,2.541-51.492-12.026-104.257-22.865-157.088-31.8q11.828-1.006,24.524-1.946c63.819,7.2,128.146,18.043,191.356,31.2m-53.24,3.844q13.615,1.691,27.175,3.42c75.44,9.622,94.939,17.749,82.205,24.5-35.46-9.733-72.073-19.132-109.381-27.922m102.744,30.529c-18.989,5.82-62.194,10.509-111.755,14.158-118.708-31.5-241.627-61.023-365.83-86.489q73.536,7.864,146.613,15.665c16.7-2.266,36.861-4.445,59.692-6.453,92.567,16.155,184.79,38.381,271.28,63.12m-128.936,15.37c-56.859,3.821-119.15,6.349-161.916,7.707-94.9-26.32-189.5-49.208-282.5-67.615,86.934,17.944,177.627,41.027,270.212,67.99-20.506.6-34.8.868-39.093.83-65.83-.586-133.243-3.1-210.935-6.221-138.562-42.932-285.1-78.934-423.786-96.813,135.4,18.581,276.147,53.716,410.414,96.259q-10.456-.453-20.814-.963-48-12.991-95.6-24.457,44.875,11.183,90.959,24.225-48.351-2.446-94.769-6.166c-176.092-54.537-360.864-102.392-552.63-138.576,76.894,1.86,152.692,4.937,221.126,9.591L886.385,672.49q81.928,9.973,163.761,23.257c-23.4,2.453-44.4,3.874-71.149,5.681,90.784,11.512,182.164,21.664,273.261,31.461,128.026,26.262,254.368,57.162,377.148,90.756m-585.627-7.575c-46.84-4.179-92.475-9.351-137.365-15.525-4.477,1.253-10.127,2.477-16.828,3.662-115.826-34.249-231.628-63.732-345.072-86.531,106.941,22.4,219.559,52.613,334.369,88.262-11.46,1.7-25.118,3.306-40.63,4.78q-58.378-18.9-117.555-36.169,16.477.171,32.061.516C655.94,756.258,560.123,732.5,460.3,703.692c-25.234-7.283-25.515-5.97-49.912-4.016q-25.586-4.734-50.964-8.889,24.344,4.025,49.79,8.983l-1.211.093c-13.108,1-28.026,1.922-44.4,2.735-34.825-8.912-69.655-17.288-103.92-24.894,79.07-.506,165.626-.02,251.1,1.951C698.312,715.279,873,761.148,1043.78,816.071m-222.764-3.832c-24.465,2.005-52.573,3.706-83.208,4.993-37.025-13.371-78.7-27.6-123.3-41.972q16.488-.381,33.548-.6c18.527-.237,36.616-.313,54.1-.243,39.38,11.926,79.132,24.6,118.868,37.823m-94.751,5.454c-15.248.577-31.065,1.052-47.318,1.414q-61.571-21.645-124.65-41.862c16.352-.711,33.448-1.3,51.112-1.763,44.066,14.443,84.96,28.746,120.856,42.211m-70,1.839q-4.1.063-8.217.116-5.852.076-11.639.127-62.586-21.24-125.673-40.251,12.02-.743,24.807-1.4c40.346,13.269,80.722,27.135,120.722,41.4m-36.671.357c-42.426.174-81.93-.5-116.214-1.874q-41.272-15.344-83.468-30.042c20.816-2.975,48.423-5.64,80.816-7.806,39.077,12.351,78.838,25.666,118.866,39.721m-135.868-2.763c-64.581-3.286-106.24-9.227-106.24-16.513,0-3.767,11.152-7.46,30.84-10.83q37.625,13.242,75.4,27.343M357.44,702.9c-17.948.842-37.52,1.556-58.283,2.112Q240.025,690.6,181.35,678.753c16.909-.392,34.519-.68,52.608-.848q9.672-.089,19.519-.158c34.241,7.687,69.105,16.149,103.962,25.149m-68.072,2.36c-17.763.426-36.318.737-55.41.914-28.887.268-56.549.209-82.092-.133Q107.982,694.531,62.785,684c30.512-2.26,70.29-4.078,115.166-5.162,35.984,7.681,73.256,16.55,111.417,26.422m-149.416.6C57.553,704.435,0,700,0,694.212c0-3.552,21.69-7,57.5-9.814q41.227,10.213,82.448,21.457m751.623-33.967,92.913-10.763c129.883,8.017,172.105,18.193,93.46,31.347-7.374.96-14.322,1.8-21.019,2.542Q973.984,681.8,891.575,671.889" transform="translate(0 -115.917)" fill-rule="evenodd"/>
    <path id="Path_10" data-name="Path 10" d="M590.906,232.347q-.53-.343-1.061-.677ZM666.987,295.7h0Zm1376.072-93.124a312.384,312.384,0,0,1,15.126,41.743,371.032,371.032,0,0,1,13.839,101.586c0,44.794-7.659,90.861-24.889,132.346-9.783,23.558-23.3,46.941-40.846,66.164,18.724-16.792,33.236-38.863,43.661-61.11,19.155-40.876,27.529-87.646,27.529-132.6,0-35.656-5.219-71.788-16.408-105.685a270.869,270.869,0,0,0-18.012-42.444M1638.437,309.171l-3.01-.791-2.326-1.153,2.121-.785,39.659-1.668,33.363-.172,3.85.863,32.783,9.228,20.858,3.535-10.252-6.363-40.446-6.5-3.577-.866,1.645-1.644,51.857-2.188,3.052,1.694,6.117,4.559-3.337,12.749-11.047-.176-7.071-2.033-26.956-3.624Zm119.79,233.867,2.251-.588c23.726,29.373,56.222,53.221,95.4,53.221a95.148,95.148,0,0,0,17.087-1.549,107.708,107.708,0,0,0,41.469-17.526c-16.293,1.055-32.7,1.218-49.021,1.6-11.253.264-22.111.182-33.028-2.435l-.357-.086-.029-.008q-1.5-.367-3-.793l-.07-.02a96.335,96.335,0,0,1-29.15-14.306l-.115-.082q-1.317-.935-2.621-1.919l-.216-.162q-1.286-.973-2.56-1.991l-.19-.153q-1.3-1.043-2.585-2.13l-.052-.045a147.9,147.9,0,0,1-17.846-18.144l-.227-.271q-1.062-1.279-2.106-2.594c-.138-.172-.276-.343-.413-.517l-.209-.264c-155.964,32.806-344.3,22.83-482.785,13.809-76.416-4.977-170.989-14.945-245.859-26.579l-5.838-.977c-13.2,51.555-32.646,89.508-55.293,104.772-9.5,5.355-20.383,7.459-31.167,7.248-13.63-.266-23.452-.544-62.815-1.449-11.558-.265-19.035-.714-30.246-4.833-.387-.144-.773-.289-1.158-.439h0a42.9,42.9,0,0,1-9.841-5.218,76.931,76.931,0,0,1-12.118-16.157c-4.575,5.007-9.387,7.679-14.354,7.679-22.015,0-41-52.474-49.774-128.237L580.652,458.053a17.337,17.337,0,0,1-6.847,2.289,15.662,15.662,0,0,1-2.863-.028l-.017.072c-5.4,21.931-12.715,45.124-22.336,62.062-7.114,12.526-16.03,22.408-26.305,22.408a16.211,16.211,0,0,1-3.7-.43c-6.914-1.615-13.039-7.608-18.314-15.6-14.618.311-31.479-.521-41.515-1.269-5.949,12.795-13.083,20-21.073,20-27.4,0-54.482-84.654-60.5-189.082-2.483-43.121-.983-82.862,3.56-114.672-3.249,29.932-4.088,65.416-1.9,103.468,6.16,106.945,33.9,193.641,61.955,193.641,6.558,0,12.55-4.748,17.807-13.371-3.614-.271-6.327-.53-7.7-.719-4.749-.651-9.248-1.847-13.11-4.73-4.653-3.474-5.508-6.5-9.371-10.3-1.3-1.274-2.52-2.768-3.866-4.307-24.428-27.932-39.791-101.938-39.791-187.17,0-73.172,12.478-135.58,29.493-168.168,5.485-10.5,16.692-19.919,17.657-21.526a33.87,33.87,0,0,1,4.866-8.29c1.827-2.124,2.627-2.525,5.358-2.98,6.709-1.117,21.572-1.479,25.019-1.516q8.167-.089,16.183.326c8.343.432,32.851,2.462,38.943,5.289a13.744,13.744,0,0,1,2.57,1.584c3.525,2.711,6.936,7.576,10.172,14.3,12.921,9.432,24.024,39.624,31.061,81.591,8.691,2.843,15.042,5.246,23.745,10.742q.531.335,1.061.677l0,0c1.916,1.234,3.793,2.511,5.66,3.815l.107.076.316.072A12.578,12.578,0,0,1,600,237.5l.011.007.076.04.006,0a19.953,19.953,0,0,0,1.956.985,3.3,3.3,0,0,0,.422.133c19.465,4.412,36.651,6.968,56.107,11.565l.12.021c1.691.285,3.431.46,5.138.631.37.037.74.072,1.109.107l.89.081.221.02h0l.22.019c.966.082,1.933.16,2.9.227.56.038,1.12.073,1.681.1l-.01,0a16.285,16.285,0,0,1-6.175-5.666l-.007-.01a17.4,17.4,0,0,1-2.45-5.733,14.288,14.288,0,0,1-.31-4.17c.834-10.735,6.855-15.243,16.16-16,19.919-1.628,39.832-3.358,59.745-5.062,5.092-11.974,10.458-23.01,19.613-34.6,17.472-22.115,37.638-38.949,66.223-42.41.665-1.331,1.338-2.621,2.013-3.891l1.077-31.3c.162-6.961,2.094-7.271,6.96-7.435l17.888-.528a71.062,71.062,0,0,0-7.169,12.474c3.484-5.454,7.061-10.924,11.656-15.523a44.694,44.694,0,0,1,6.7-5.4,27.862,27.862,0,0,1,16.275-4.534L909.8,83.4c2.916-13.831,5.764-28.157,11.227-41.289C931.495,16.949,947.982-1.177,977.139.064a56.1,56.1,0,0,1,24.619,6.6,34.641,34.641,0,0,1,4.736,3.069,81.368,81.368,0,0,1,18.859-1.995c27.429.334,55.465,14.876,72.9,46.09a46.57,46.57,0,0,1,4.01,8.869q1.3.747,2.575,1.555c3.371,2.137,6.821,4.292,6.773,8.512l-.093,8.173V81l0,.209v.026l0,.235v0l0,.231v.034l0,.2V82l0,.172,0,.093,0,.142,0,.123v.113l0,.152v.083l0,.181v.053l0,.213v.022l0,.236v.006l0,.229v.036l0,.2v.066l0,.169v.1l0,.139,0,.125v.11l0,.155v.08l0,.185v.05l0,.214v.021l0,.235v.009l0,.225v.04l0,.2,0,.068,0,.167v.1l0,.137,0,.128v.107l0,.158v.078l0,.187v.048l0,.218v.017l0,.235-.115,10.076-2.42.748c-.238,3.687-.209,4.275-3.921,6.211a17.358,17.358,0,0,1-.311,3.083c36.726-5.91,155.861-11.195,178.815.213,9.695,4.819,10.429,7.318,17.624,14.734,5.573,5.745,24.532,24.25,41.819,40.109l25.92,23.779a25.6,25.6,0,0,0,3.909,3.14c1.016.5,26.081,4.219,28.746,4.622,46.592,7.046,81.257,12.618,128.131,22.246,31.5,6.469,96.649,19.165,128.563,27.59,8.563,2.26,18.5,5.311,29.236,8.885,3.112-12.8,6.164-28.012,9.392-38.09,2.78-8.68,6.864-16.1,16.5-18.779a23.845,23.845,0,0,1,23.366,6.1,24.883,24.883,0,0,1,1.969,2.371l.235-.57c.3-.727.616-1.443.924-2.165,8.019-18.757,18.373-37.02,31.585-52.627a136.307,136.307,0,0,1,19.257-18.822c.073-.058.149-.112.224-.171,12.672-9.989,27.319-17.208,43.331-19.555l.021,0,.085-.012.477-.068h0c3.568-.482,7.085-.647,10.655-.841,11.052-.553,22.1-1.019,33.156-1.337h.2l.031,0h.228l.033,0h.26l.033,0h.228l.032,0h.358l.033,0h.293l.033,0h.032l.033,0h.26c10-.265,19.974-.426,29.594-.426a93.729,93.729,0,0,1,22.8,2.848c25.746,6.452,47.54,23.041,64.639,42.88,19.776,22.947,34.233,51.148,44.165,79.564l.022.06,0,.006c11.314,32.394,18.222,69.3,19.35,108.548C2064.844,466.1,2009.528,566.4,1934.258,575c-5.573.637-11.011,1.022-16.6,1.384-13.83,11.089-29.623,19.3-47.328,22.528a90.216,90.216,0,0,1-16.193,1.468c-40.187,0-72.885-26.408-95.913-57.346M935.759,64.623c-1.675,5.951-2.988,11.995-4.261,18.042h8.578C943.487,54.838,960.484,31.6,983.3,18.7h0q-.512,0-1.018,0h-.036q-.507.006-1.008.022h-.013q-.5.016-.994.043l-.027,0c-.324.017-.646.038-.966.062l-.045,0q-.47.036-.934.08l-.063.006q-.46.046-.915.1l-.058.007q-.467.056-.928.121l-.011,0q-.461.066-.917.14l-.057.009c-.3.049-.591.1-.883.156l-.046.009q-.443.084-.88.176l-.039.009q-.436.092-.865.193l-.054.013c-.285.068-.57.139-.852.212l-.03.007a38.3,38.3,0,0,0-16.047,8.691l-.005,0a57.429,57.429,0,0,0-11.939,15.786,102.325,102.325,0,0,0-7.915,20.065M773.5,482.419c9.508,71.385,28.134,119.892,49.555,119.892a16.265,16.265,0,0,0,8.813-2.787,179,179,0,0,1-10.829-24.462c-12.383-20.109-22.544-51.557-29.34-90.344ZM581.267,346.235c-.184,19.917-.461,39.824-.749,59.588q-2.022,11.733-4.416,23.206a27.443,27.443,0,0,1-9.42-.028,635.631,635.631,0,0,0,7.225-83.515Zm1113.066-90.66c8.517,2.916,17.443,6.114,26.521,9.472a319.011,319.011,0,0,1,15.1-53.357l.16-.416a21.35,21.35,0,0,0-3.31-3.916c-9.014-7.9-21.639-5.571-27.446,4.767-3.994,7.11-8.18,29.738-11.022,43.451M730.187,450.544l-132.127-6.469a13.363,13.363,0,0,0,.882-1.442,8.688,8.688,0,0,0,.8-6.333,30.594,30.594,0,0,1-.95-4.7l.549-.38c4.045.58,7.678.263,11.013-2.307A52.884,52.884,0,0,0,615,424.419l.024-.025,24.662-27.47.137.09,5.347,4.383a4.037,4.037,0,0,0,6.392-1.844.138.138,0,0,1,.016-.018,4.052,4.052,0,0,0,.692-3.875,4.039,4.039,0,0,0,3.656-7.011l-5.065-4.173,3.51-3.911L659.762,385a4.04,4.04,0,0,0,5.123-6.248l-5.108-4.208L663.6,370.3l5.051,4.162a4.04,4.04,0,0,0,5.123-6.249L669,364.277l3.464-3.858,4.852,4a4.04,4.04,0,0,0,5.123-6.248l-4.573-3.77,6.961,3.517a4.054,4.054,0,0,0,4.06.625l.013,0c1.411,3.187,3.441.951,3.524,8.14.316,27.806-1.975,26.037,10.4,48.392a161.618,161.618,0,0,0,27.365,35.474m-161.516,9.434c-.872-.168-1.736-.373-2.588-.588-1.683-.425-3.356-.9-5.028-1.371L561,458c-5.348,22.448-12.053,39.7-19.59,49.655q-1.141,1.507-2.306,2.788c-4.183,4.6-7.636,11.56-12.346,14.573a10.6,10.6,0,0,1-1.929.934c-4.092,1.551-11.34,2.368-19.763,2.72A25.459,25.459,0,0,0,516.5,535.3a17.7,17.7,0,0,0,4.03.469c11.018,0,20.563-10.384,28.2-23.835,8.191-14.421,14.756-33.135,19.936-51.957m19.892-43.135a10.534,10.534,0,0,1,.769-5.186,11.959,11.959,0,0,1,1.111-1.921c.639-.951,1.329-1.875,2.025-2.784,2.065-2.7,4.255-5.321,6.449-7.912,5.92-6.995,12.033-13.857,18.165-20.672l-4.026-3.3a4.051,4.051,0,0,1-.563-5.685l.016-.019a4.036,4.036,0,0,1,4.926-2.607,4.037,4.037,0,0,1,6.378-4.438l4.5,3.657,2.457-2.693-2.214-1.691a3.914,3.914,0,0,1-1.6-3.653,4.04,4.04,0,0,1,5.818-5.514l4.527,3.728q1.77-1.927,3.542-3.853L601,348.243l-12.328-1.255q-.725,8.1-1.572,16.15c-.125,20.171-.313,40.275-.521,60.183,1.161-1.188,1.963-4.792,1.988-6.476Zm61.241-86.5c1.322-2.585,2.273-4.357,2.341-4.44a4.014,4.014,0,0,0,2.167-2.672,4.054,4.054,0,0,1,5.686-.563l4.7,3.813.426-.46-4.184-3.389a6.182,6.182,0,0,1,6.106-9.348,6.126,6.126,0,0,1,.24-3.013,5.149,5.149,0,0,1,.38-.814,1.674,1.674,0,0,1,2.564-.4,11.783,11.783,0,0,1,4.058-1.752c-.027-.175-.051-.349-.071-.524l-45.08-13.99a11.935,11.935,0,0,1-4.881-.543,13.621,13.621,0,0,1-4.514-2.393l-32.593-10.186q.119,19.02.1,38.146l55.4,5.64a7.334,7.334,0,0,1,6.4,6.834Zm29.025-31.273q.287-.244.565-.5c1.282-1.183,2.545-2.382,3.814-3.576l.026-1.338c-35.163-8.309-46.767-20.319-75.517-43.756l-1.479-1.206-18.078-4.2a13.1,13.1,0,0,1-1.36.11q.177,12.562.28,25.218l33.858,10.967a11.041,11.041,0,0,1,5.646.457,13.89,13.89,0,0,1,4.961,2.979l35.442,11.48Zm4.483-9.519.474-25.124c.023-.851.074-1.917.084-3.072h-13.9c-8.482,0-10.526.016-18.834-2.239l-35.27-8.188.662.534.045.036.616.5.452.365.209.17.661.534,1.263,1.02.058.048,1.32,1.069.659.533.09.073.568.459.495.4.164.133,1.957,1.579.014.012q2.1,1.69,4.182,3.349l.054.043c3.46,2.744,6.939,5.452,10.493,8.074q.46.34.921.675l.007,0a128.2,128.2,0,0,0,16,10.2c7.812,4.071,18.044,6.918,26.552,8.811m11.836-28.2c-.516,6.251-.85,17.4-1.08,28.282l4.909-2.968a101.349,101.349,0,0,1,9.045-15.761c3.045-4.336,5.284-7.35,6.986-9.553Zm-114.742,152.1-.207,14.151-.472.22a16.718,16.718,0,0,1-1.973.769q1.4-7.52,2.652-15.141m6.711-53.862q.038-6.374.066-12.754l1.322.134q-.334,3.215-.686,6.421-.341,3.1-.7,6.2M567.149,227.469c6.183,1.781,10.68,3.186,14.427,4.67-3.089-.078-6.442.588-7.046,3.441-.869,4.105,2.851,6.79,6.439,8.069q.235,12.1.357,24.306l-9.773-3.166c-1.133-13.149-2.615-25.649-4.4-37.321m5.207,47.576,9.056,2.83q.135,19.6.049,39.35l-7.4-.753c-.191-14.282-.774-28.149-1.709-41.427m195.066-81.417A79.515,79.515,0,0,1,779.2,189.61q-6.216,12.35-13.385,24.078c-.215,0-.424,0-.629,0h0c-1.828-.678-2.3-1.877-2.373-4.208-.115-3.642,3.1-12.184,4.376-15.294Zm26.952-38.354q-5.682,14.688-12.4,28.7a80.619,80.619,0,0,0-11.439,2.942c4.629-9.163,11.071-19.01,17.39-25.672a59.42,59.42,0,0,1,6.449-5.971" transform="translate(-65.922 -0.004)" fill-rule="evenodd"/>
    <path id="Path_11" data-name="Path 11" d="M1124.192,271.771l61.869,25.394a4.134,4.134,0,0,1,.261,4.7l-63.49-26.108q-.171.408-.351.812l-5.944-2.444,1.308-3.182.676-1.641-11.751-4.832.625-4.527-.76,1.276-.923,2.816-1.983,4.822-21.275-8.748,1.308-3.181,1.177-2.862-7.41-3.046.555-3.439-1.236,1.231-15.318-2.2c-.005-2.049-.117-4.048-.286-5.877-.644-6.953-1.261-8.768-3.546-9.6-2.142-.783-4.122-1.433-6.043-2.013,7.691-.931,15.388-1.836,23.073-2.809,5.662-.717,11.317-1.482,16.947-2.413,14.473-2.392,28.9-5.886,43.167-9.259q5.067-1.2,10.137-2.378c87.654,8.925,177.629,21.067,265.377,35.149a22.827,22.827,0,0,0-6.04,7.777c-3.336,7.58-1.524,17.35,5.345,23.979,21.422,20.672,61.564,22.421,90.283,24.557,35.914,2.671,86.368,3.456,122.786,2.456,14.994-.412,33.038-1.719,49.692-2.239,2.382-.074,14.367-.444,30.082-1.032q4.223.935,8.413,1.871c-9.055.305-21.464.706-38.43,1.235-13.722.429-27.427,1.371-41.14,1.94l-.033,0c1.522.809,3.05,1.622,4.595,2.448,27.522,14.7,74.965,37.793,93.942,60.792l6.546-.13c-19.659-22.563-66.039-44.671-92.829-59.483l-5.469-3.024c9.692-.5,19.384-1.063,29.085-1.365,23.595-.736,38.373-1.224,47.583-1.551q24.083,5.406,47.061,10.852-21.49-5.473-44.118-10.957c14.255-.522,28.24-1.427,43.308-2.367,3.214-.2,6.441-.4,9.669-.637,34.974,19.122,66.263,38.548,87.754,56.823,1.81,1.54,5.054,4.757,6.722,6.28a68.707,68.707,0,0,1,6.951.085c-21.241-20.417-56.292-42.589-96.124-64.367-3.228.232-6.455.437-9.669.637-18.25,1.137-34.315,2.068-52.188,2.679q-3.94-.952-7.911-1.9c28.152-1.075,66.129-2.783,83.481-4.715,2.391-.266,7.368-.853,10.545-2.363,9.454,3.993,18.043,7.722,25.305,10.967,40.572,18.135,74.742,35.519,111.014,61.031,8.71,6.127,13.849,9.947,17.4,14.561,10.176,13.232,11.784,37.333,6.6,52.857-4.266,12.768-12.508,24.44-22.791,33.71,7.348-6.624,12.485-14.951,16.8-23.569,6.322-12.635,8.053-26.858,5.272-41.392-3.406-17.8-15.2-23.239-35.074-27.822a283.48,283.48,0,0,0-32.192-5.331c-43.792-4.663-107.794-.521-158.484,1.872-64.417.633-89.754,1.063-136.135-10.674-109.477-27.7-159.778-54.295-300.426-71.235,202.207,38.584,329.284,111.182,90.832,41.813,46.712,15.1,119.335,60.335,238.452,69.369a63.2,63.2,0,0,0-5.039,8.036c-62.381-4.205-92.458-3.341-132.475-24.287,29.7,17,23.881,20.743,25.8,20.924.807.077,1.751.159,2.815.247,18.117,1.489,76.811,5.013,103.461,3.895-5.125,10.27-3.222,15.268-8.194,17.829-8.374,4.315-88.411-.7-99.988-3.272.166-9.722,2.9-18.711-5.071-24.619-84.852-62.877-146.516-74.968-246.4-91.3-9.714-1.588-7.2-5.458-4.187-10.868,12.029-21.781,24.7-35.828-.866-36.113-1.7-.019-3.537-.031-5.478-.032.147.165.295.344.445.539,7.042.044,12.63.53,14.5,1.645,3.421,2.039,4.2,2.99-11.481,5.132,2.324,11.506-5.4,26.733-8.342,34.217-6.193,15.764-12.076,29.771-18.262,46.024l-.458,1.2-.345-8.628.384-1.267c.446-1.706,1.465-3.8,3.585-9.31,4.556-11.844,13.45-33.539,16.793-44.781,1.659-5.581,3.176-11.38,2.321-16.893-7,.89-13.529,1.648-26.293,3.055,2.009,6.378,3.766,75.551,2.623,58.624-.99-14.65-2.97-33.666-4.984-48.464-.907-6.668-2.19-18.024-11.339-18.129-6.463-.074-46.457,12.179-60.369,16.423l-25.629-10.538c-.048.206-.1.416-.156.626m-277.107,313.7c-7.559,15.869-16.142,24.843-25.242,24.843-11.335,0-21.868-13.915-30.616-37.753l6.8.435h0c8.177,18.774,17.628,29.493,27.7,29.493,7.561,0,14.772-6.058,21.359-17.017M772.07,482.08q-.519-4.492-.992-9.086l-.025-.243L579.866,446.981l8.812-.506L770.76,469.841c-.067-.686-.133-1.376-.2-2.066q-.1-1.06-.2-2.124-.127-1.377-.25-2.762-.12-1.345-.234-2.7-.1-1.185-.2-2.377-.11-1.34-.216-2.686-.094-1.209-.187-2.422-.11-1.462-.215-2.933-.081-1.139-.16-2.283-.109-1.582-.212-3.175l-.127-1.987q-.111-1.779-.214-3.571l-.1-1.686q-.107-1.89-.2-3.793l-.075-1.47q-.106-2.125-.2-4.267l-.043-.969q-.1-2.3-.188-4.614l-.031-.806q-.09-2.4-.167-4.816l-.02-.662q-.078-2.5-.142-5.016l-.014-.555q-.066-2.606-.114-5.231l-.005-.256q-.05-2.7-.085-5.426l0-.207q-.035-2.777-.052-5.572v-.075q-.018-2.849-.017-5.715,0-1.17,0-2.337V385l.007-1.959,0-.172.011-1.784,0-.581v-.119l.017-1.9,0-.341,0-.308.022-1.944,0-.1v-.035l.031-2.142,0-.17,0-.136v-.047l.032-1.887,0-.27.008-.374.025-1.286.013-.642.006-.305.045-2.039v-.015l0-.2.047-1.917.005-.2.011-.437.035-1.273.017-.6v-.035l.06-2.019.016-.522.042-1.264.02-.632.018-.529,0-.1.022-.632.022-.63.006-.168.016-.462.024-.629.047-1.258.012-.3.013-.332,0-.04.049-1.214.026-.626.027-.642.054-1.28.043-.971.01-.227.028-.622-36.132-2.357,19.5-2.455-143.3-10.546,8.378,3.323-39.463-5.54c0-.651,0-1.3,0-1.955l191.322,13.211.007-.143q.062-1.16.127-2.317l0-.023.047-.826.048-.824.048-.824.1-1.615,0-.027.05-.819q.1-1.638.21-3.267l.054-.813.112-1.624.056-.809q.114-1.619.235-3.227l.06-.8.123-1.6.062-.8q.221-2.793.457-5.553v-.007l.068-.789.138-1.574.07-.784q.141-1.568.289-3.126l.073-.778.15-1.551.076-.774q.152-1.545.311-3.08l.079-.766q.279-2.681.575-5.325l.084-.755.171-1.5.088-.75.175-1.5.089-.746.09-.745a64.928,64.928,0,0,1-4.7-6.548c-9.294,4.081-14.839,9.556-21.763,20.76-1.625-9.514-30.5-1.062-40.736-.289-3.613.273-4.188,1.076-4.188,6.934l-3.606.427c-2.1.572.81-13.191,2.406-12.387,7.787,2.785,19.381,1.965,27.182-.467,1.17-.365,5.234-2.157,1.421-1.371-14.725,2.525-26.875-.06-27.485-1.875-1.681-1.235,11.145-26.825,13.034-22.964,7.862,21.658,43.981,25.965,33.512,21.459-14.557-5.219-27.415-13.642-30.5-25.938,7.173-10.8,17.047-19.886,27.316-27.863,2.923-3.808-10.389,5.087-16.6,11.986,4.244-9.652,8.356-20.18,12.817-30.763-24.571,1.309-50.3,3.364-72.1,5.787,1.243-2.691,5.463-5.205,12.105-5.748,20.75-1.7,41.49-3.5,62.234-5.274,8.514-19.631,18.5-38.986,33.017-52.815,12.957-12.215,27.43-20.91,45.311-24.2l.059-.012.389-.071.285-.049.537-.092.334-.056c.23-.038.462-.075.693-.111l.086-.014.031,0h0c.279-.044.559-.085.839-.125l.16-.023.77-.106.145-.019c.293-.038.587-.076.882-.111q-1.829,3.66-3.6,7.622c-14.72,1.938-25.836,7.4-34.628,15.623q-.349.36-.7.73c-7.765,8.187-15.719,21.269-20.141,31.808l-.228.549-.06.147-.019.046-.045.109-.035.088-.03.074c-1.356,3.368-4.216,11.15-4.109,14.559l0,.057v.063l0,.049v.07l0,.04,0,.054,0,.021v.033l0,.054,0,.027,0,.026,0,.053,0,.034,0,.019,0,.052,0,.04v.012l0,.051,0,.045v0l0,.05.005.049v0l.01.1,0,.008.01.088v.014l.005.034.008.067,0,.027.006.046,0,.026,0,.021.012.076,0,.015.007.045.007.036,0,.008.008.044.008.041v0l.009.043.009.044v0l.018.082v.008l.018.074,0,.013.007.027.011.041.005.018.006.021.018.063.005.016.011.039.009.028.026.081,0,.006.026.073v0l.028.073,0,0,.058.139.005.012.01.022.017.035.008.016.008.017.051.1.013.025.005.008.033.06,0,0,0,0,0,0,0,0,0,0,0,0,0,0,0,0,0,0,0,0,0,0,0,0,0,0,.01.016,0,0,.005.008,0,0,0,0,0,0,0,0,0,0,0,0,0,0,0,0,0,0,0,0,0,0,0,0,0,0,0,0,0,0,0,0,0,0,0,0,0,0,0,0,0,0,0,0,0,0,0,0,0,0,0,0,0,0,0,0,0,0,0,0,0,0,0,0,0,0,0,0,0,0,0,0,.021.026,0,0,0,0,0,0a3.572,3.572,0,0,0,1.685,1.12q.249.087.531.162l.02,0,.037.01.008,0c.087.021.175.041.264.06,1.967.386,6.545-.073,8.363-.368l.594-.123,15.716-3.248.2-.04,1.88-.388,1.566-.324.511-.106,7.409-1.531.595-.123-.287,1.244-.024.107-.306,1.347-.006.031-.229,1.018-.073.325-.016.071-.248,1.118-.039.18-.043.2-.257,1.178-.019.088-.275,1.273,0,.02-.268,1.258-.028.13-.107.51-.134.642-.052.242-.083.4-.133.645-.074.354-.012.06-.18.879-.095.467-.037.181-.131.65-.026.125-.052.259c2.524-11.807,5.347-22.868,8.429-33.05-7.376,30.6-12.651,67.012-14.979,106.588q-1.1,10.209-1.967,20.808-.968,15.507-1.308,31.616c-1.125,55.213,3.792,105.888,12.9,145.6-1.682-16.022-2.866-32.961-3.49-50.59,10.654,67.318,31.737,112.426,56.87,112.426,19.679,0,37.974-27.654,51.387-71.965-13.649,56.623-34.488,93.344-57.165,93.344-23.714,0-43.825-40.149-54.969-101.228L775,473.282l.076.639q.527,4.4,1.1,8.68l0,0Zm5.108-224.186q.308-1.744.626-3.462-.318,1.718-.626,3.462m.668-3.69q.151-.821.305-1.637-.155.815-.305,1.637M770.1,339.692l-.029.807,13.621.94-13.7,1.121v.04l0,.04v.04l0,.039,0,.04v.04l0,.04,0,.04,0,.04v.04l0,.04v.04l0,.04,0,.04v.04l0,.04v.04l0,.04,0,.04v.04l0,.04,0,.04v.119l-.006.158v.04l0,.04,0,.04v.04l0,.04v.079l0,.04v.119l0,.04v.04l0,.04,0,.04v.04l0,.079v.08l0,.039v.04l0,.079,0,.04v.04l0,.04,0,.04v.04l0,.04v.12l0,.039v.04l1.645,1.835-1.7-.111-.013.424-.008.28,0,.145-.012.425-.023.851-.012.426,0,.193-.006.233-.034,1.279-.01.426,0,.106-.007.321-.031,1.282-.009.427v.019l-.008.41-.019.857-.009.429-.007.36v.069l-.008.429-.017.859-.008.43-.005.274,0,.157-.029,1.723,0,.186,0,.246-.025,1.727,0,.1,0,.335-.021,1.731v.01l-.013,1.291-.005.435,0,.355v.079q-.017,1.954-.026,3.917v.435l-.006,1.714v.471l0,1.751q0,2.895.019,5.772l0,.2q.018,2.815.053,5.614l0,.329q.036,2.791.087,5.563v.065l0,.1q.052,2.735.12,5.451l.01.392q.068,2.682.151,5.345l.015.454q.081,2.6.178,5.175l.021.572q.092,2.444.2,4.871l.036.82q.107,2.411.227,4.8l.044.862q.117,2.277.244,4.539l.067,1.185q.123,2.118.255,4.221l.083,1.315q.135,2.093.279,4.17l.092,1.317q.141,1.988.291,3.961l.111,1.451q.147,1.89.3,3.766l.144,1.722q.147,1.732.3,3.451l.168,1.859q.148,1.615.3,3.219.094.98.19,1.955.165,1.669.336,3.324l.2,1.9q.166,1.571.339,3.13l.217,1.951.124,1.079,20.139,2.585c-6.336-36.1-9.583-79.231-8.662-125.572.289-14.581.981-28.844,2.031-42.67a89.757,89.757,0,0,1-14.824-13.734l-.015.147-.019.195-.11,1.15-.068.727-.07.741-.069.744-.055.609-.012.135-.068.746-.018.188-.069.774-.113,1.282-.013.144-.016.179-.1,1.179-.045.52-.019.233,0,.037-.119,1.42,0,.052-.012.144-.016.2-.128,1.588-.009.1-.018.237-.1,1.323-.055.724-.019.236-.058.764-.04.524-.018.24-.09,1.231-.059.8-.02.268-.055.769-.038.526-.017.244-.054.772-.053.772-.009.14-.014.192-.09,1.369-.04.592-.1,1.585-.008.139-.1,1.561-.04.64-.047.782-.046.783-.008.138-.037.647-.069,1.188-.007.127-.014.256-.087,1.575-.007.137v.007l-.1,1.823-.008.143-.013.26-.08,1.586-.006.135,0,.052-.087,1.773-.007.162-.013.264-.074,1.6-.005.134,0,.04-.063,1.425-.023.534-.011.268-.067,1.6,0,.132,0,.026-.077,1.974v.012ZM1917.111,576.777a151.521,151.521,0,0,0,25.549-22.306,159.073,159.073,0,0,1-22.324,22.1Zm-866.4-55.959c-3.137,11.47-6.733,22.792-10.872,33.869-8.394,22.471-19.964,46.452-36.087,64.366-12.017,13.353-27.585,24.167-46.18,24.167a47.828,47.828,0,0,1-6.747-.479,57.85,57.85,0,0,1-24.8-10.236q-1.663-.015-3.324-.037c8.882,8.559,19.677,15.651,32.082,17.414a42.022,42.022,0,0,0,5.917.421c16.771,0,30.84-10.089,41.63-22.077,15.416-17.129,26.508-40.256,34.536-61.742a398.037,398.037,0,0,0,13.848-45.665m712.446,21.813q-2.787-3.449-5.412-6.99-.991.186-1.984.367,2.484,3.636,5.145,7.211Zm-390.53-354.707q.4.345.749.637Zm4.264,3.722c1.016.5,24.854,4.233,27.518,4.635,46.592,7.045,81.257,12.619,128.131,22.246,31.5,6.469,96.234,18.476,128.149,26.9,13.257,3.5,29.987,8,47.72,14.311-13.357-4.47-27.772-8.45-40.233-10.44-5.069-.81-26.936-3.594-33.224-4.141-.964-.083-36.5-3.406-28.217,5.393,5.1,5.418,24.225,9.587,31.54,11.027,1.471.289,3.122.614,4.917.962a475.221,475.221,0,0,0,64.387,7.919c3.53.176,8.406,1.19,5.6,4.216-3.352,3.611-15.689,2.552-18.8,2.359-11.778-.736-35.013-3.027-46.178-6.164l-17.43,5.73c29.236,6.773,52.715,7.316,82.532,9.486a278.832,278.832,0,0,0,33.9.867c2.047-.061,8.983-.263,9.341-3.419.7-6.176-24.336-14.962-29.354-16.95,24.428,9.112,49.7,19.27,70.905,28.195l-1.707-.717c-29.406,2.491-88.646,4.494-105.607,5.037-29.432-6.94-60.017-13.845-91.419-20.637-.235-2.369-.392-4.68-.671-7.06-10.573.067-20.386.251-29.988.52q-18.528-3.9-37.354-7.73c9.1-1.937,22.54-4.042,34.063-6.4,7.025-1.437,37.423-7.863,14.963-15.126-9.218-2.981-25.065-5.223-43.437-5.813-31.8-1.021-68.036,2.157-75.937,5.021l18.942,5.068s3.449-.775,12.081-1.783c11.957-1.4,38.778-4.525,49.727.9,3.9,2.09.361,3.876-1.719,4.576-8.046,2.709-22.032,3.251-35.212,6.268-1.442.33-3,.67-4.618,1.033-25.234-4.993-50.75-9.873-76.394-14.6,4.731-4.393,11.605-8.1,19.3-11.153q-1.08.3-2.158.62l-2.215-.544c-71.226-20.046-145.5-28.291-214.734-43.556a67.605,67.605,0,0,1-15.706-5.858c11.455-6.9,24.845-11.506,40.643-14.2a205.788,205.788,0,0,1,21.761-2.445c28.022-1.747,46.085-3.456,76.846,16.037,4.628,2.933,9.441,6.1,15.072,8.169,8.154,2.993,17.062,5.763,26.553,8.354Zm56.345,43.647a94.139,94.139,0,0,0-15.484,6.93c-79.573-14.59-160.262-27.711-237.494-38.3l0,0a78.427,78.427,0,0,1,18.582-19.47,69.3,69.3,0,0,0,16.608,6.316c69.746,15.378,144.612,23.629,216.323,44Zm345.145,92.9a3.068,3.068,0,0,1,.08.682c0,4.527-10.7,6.572-23.906,4.565s-23.907-7.3-23.907-11.829a2.976,2.976,0,0,1,.823-2.013,2.714,2.714,0,0,0-.115.785c0,4.461,10.545,9.678,23.553,11.654,12.354,1.878,22.486.155,23.472-3.844m-359.1-79.337a17.485,17.485,0,0,0-.823,1.623c-3.337,7.58-1.524,17.35,5.345,23.98,21.422,20.672,61.563,22.42,90.284,24.556,35.913,2.672,86.367,3.456,122.786,2.457,14.775-.406,32.513-1.682,48.963-2.216-28.305-6.155-57.58-12.238-87.6-18.185l-24.045.433c-35.407.925-68.021,2.775-102.851,8.763-9.263-17.816,3.834-25.359,17.927-29.571q-34.646-6.1-69.984-11.84m134.215,23.56q-15.438-2.917-31.081-5.774c-4.275,1.841-4.986,4.3-5.333,7.3,12.932-.572,24.734-1.1,36.415-1.528m339.375,90.829a276.227,276.227,0,0,1,44.682,9.313q6.448,4.563,13.017,9.519c-16.176-8.176-39.436-12.393-58.289-14.708C1856.7,341.2,1817.116,317.4,1782.024,300.9c27.855,7.546,87.409,45.1,110.847,62.342m-119.187-38.708c-7.528,1.832-39.957-.963-17.278-5.7-3.011-.007-9.145.83-11.671,2.153-1.267.664-4.326,2.875-2.993,4.271,3.942,4.131,29.431-.059,31.942-.724m-90.2-62.944c8.754-.543,4.264-2.989-.562-4.746-6.522-2.375-14.55-3.814-21.337-4.672-5.91-.747-11.324-.856-12.067,1.059-1.005,2.6,8.907,5.769,18.4,7.2a98.47,98.47,0,0,0,15.57,1.163M1277.294,105.543q-1.849-.395-3.925-.745c10.386,12.082,34.827,41.592,33.88,40.4,4.564,2.75,9.485,5.536,14.893,8.309-20.873-6.232-42.93-3.52-66.952-2.373-8.157-15.19-14.8-27.594-20.481-38.443l-1.71-.19q-1.85-.205-3.707-.349c6.909,11.174,15.011,23.784,24.94,39.028-4.817.243-9.669.6-14.473,1.118-6.526-12.188-13.537-25.862-20.826-40.568q-.575,0-1.15,0h-.252q-1.314,0-2.627.03c6.4,12.293,13.522,25.686,21.748,40.9-15.162,1.879-29.671,5.5-40.9,12.481q-.859.534-1.673,1.08c-10.173-18.948-18.488-34.464-25.6-48.056l-.559.167q-3.9,1.155-7.713,2.555c7.557,14.94,16.147,31.274,26.817,51.036-7.572,7.518-10.714,16.675-11.235,28.654l-4.088.95c-14.534-27.432-25.268-48.443-34.89-69.21q-4.623,2.849-9.035,6.021l-.238.171c10.609,19.467,22.684,39.576,38.371,64.371-8.223,1.924-16.505,3.878-24.726,5.8C1128.866,185.5,1119.9,168.064,1111.942,151q-1.7,1.488-3.367,3-1.436,1.305-2.857,2.626l-.431.4c8.674,15.735,18.635,32.17,31.654,52.642q-2.566.6-5.12,1.19l-8.383,2c-10.849-20.268-18.689-35.153-25.355-48.882q-2.062,2.063-4.075,4.177l-.482.507c7.406,12.867,16.155,26.884,27.667,44.734l-5.778,1.376c-7.32-13.829-15.04-28.9-23.015-44.908q-1.472,1.583-2.909,3.2l-.586.658c6.8,12.963,14.195,26.844,22.383,42.029-22.475,5.291-29.432,6.445-60.781,10.312l.16.825c31.579-3.827,39.619-4.525,61.561-9.4l.062-.013.063-.014.062-.014.062-.014.063-.014.063-.014.063-.014.063-.013.063-.014.063-.014.063-.014.063-.014.063-.014.064-.015.063-.014.063-.014.064-.014.02,0,.107-.024.063-.015.064-.014.064-.014.064-.014.064-.015.064-.014.065-.015.064-.014.064-.015.064-.014.064-.015.064-.014.065-.015.064-.014.065-.015.065-.015.065-.015.065-.014.065-.015.03-.006.035-.009.066-.014.065-.015.065-.015.065-.015.066-.015.066-.015.065-.015.065-.015.066-.015.066-.015.066-.015.067-.015.066-.015.066-.016.066-.015.067-.015.067-.015.133-.031.067-.015.133-.031.068-.016.067-.015.068-.016c1.887-.43,3.875-.885,5.984-1.377l.032-.007.032-.008.031-.007.032-.007.031-.007.032-.008.032-.007.032-.007.032-.007.032-.007.032-.007.032-.007.032-.007.032-.007.032-.007.031-.007.033-.007.032-.008.032-.007.032-.008.032-.007.032-.007.032-.007.032-.007.032-.007.033-.007.032-.007.032-.008.032-.007.032-.007.033-.007.032-.008.033-.007.032-.008.032-.007.033-.007.032-.007.033-.008.032-.007.032-.007h.007l.026-.007.033-.008.032-.007.033-.007.033-.007.032-.007.033-.008.033-.007.033-.007.032-.007.033-.008.033-.007.032-.008.033-.007.033-.007.033-.008.033-.007.032-.007.034-.007.032-.008.033-.007.033-.007.033-.008.033-.007c3.035-.71,6.309-1.484,9.882-2.334l3.552-.823,39.825-9.593c.453-10.425,2.882-18.421,8.658-25.21a49.334,49.334,0,0,1,11.441-9.831c21.477-13.341,57.636-14.179,83.278-15.139,24.075-.888,45.88.895,67.032,16.191l.215.155q.62.449,1.236.914l21.331,17.344c-2.251-1.971-5.2-4.626-8.6-7.74l-15.506-12.608a76.946,76.946,0,0,0-23.685-12.227c-12.252-14.365-25.9-28.563-45.789-48.255m-6.346-1.13c-3.995-.595-8.5-1.084-13.419-1.48,7.043,8.284,13.082,15.506,18.58,22.306,6.471,3.9,12.888,8.309,20.01,12.953-9.141-12.96-17.489-24.284-25.171-33.779m-14.07-1.533q-1.958-.152-4-.287c3.863,5.717,7.344,10.926,10.573,15.85,2.789,1.287,5.489,2.683,8.151,4.173-4.437-6.144-9.258-12.592-14.728-19.736m-28.025-1.2q-2.95-.046-5.962-.07,2.368,3.934,4.939,8.094,2.794.186,5.428.476c-1.535-2.938-3-5.763-4.4-8.5m-9.3-.087c-3.308-.011-6.663,0-10.042.032q1.978,3.845,4.05,7.829,2.051-.054,4.02-.06l-.64-1.293.839,1.293q2.984-.006,5.793.093Zm-58.95,1.643q-4.634.259-9.1.548c2.405,4.908,4.891,9.9,7.5,15.057q4.061-1.507,8.256-2.749c-2.341-4.475-4.552-8.742-6.657-12.855m-35.487,2.67c-5.066.506-9.62,1.036-13.534,1.575,4.779,9.859,9.638,19.348,14.835,28.956q4.7-3.37,9.41-6.258c-3.67-7.979-7.19-15.953-10.712-24.273m-30.326,5.122c-3.408,1-7.028,2.152-10.8,3.428,6.56,14.427,12.918,27.248,20.134,40.459q1.41-1.31,2.878-2.644,1.967-1.788,3.913-3.483c-5.553-12.02-10.654-23.977-16.126-37.76m-13.213,4.255c-4.084,1.414-8.318,2.956-12.62,4.584a485.967,485.967,0,0,0,23.356,46.677q2.251-2.366,4.693-4.795c-2.538-5.278-4.913-10.417-7.236-15.664,2.682,4.541,5.543,9.263,8.646,14.273q1.648-1.616,3.385-3.262c-8.178-15.728-14.324-28.293-20.225-41.813m-13.358,4.863q-2.771,1.054-5.574,2.149c7.615,15.4,15.8,31.455,25.1,49.21q1.712-1.922,3.543-3.875c-7.509-15.106-15.238-31.018-23.068-47.484m156.73-8.271c5.367,10.848,7.579,16.9,4.217,15.179-3.536-5.41-6.854-10.5-9.979-15.319q2.152.015,4.3.089Zm49.459,14.988q1.175,1.643,2.318,3.263c.756,4.258,1.455,8.741,2.352,13.2-4.2-6.979-8.489-13.78-13.32-21.181q2.38,1.2,4.706,2.505Zm-81.245,39.984c-10.507-16.132-19.395-29.931-27.14-42.292,8.051,16.564,15.826,31.969,23,45.51a48.629,48.629,0,0,1,4.139-3.218m-5.715,4.662c-.1.1-.2.2-.3.294Zm19.823,138.8a1.288,1.288,0,0,1-1.267,1.166c-1.617,0-1.681-.78-1.141-2.086.621-1.5.509-2.892,1.193-2.594.48.209,1.361,1.522,1.215,3.514m1.737-3.967a27.135,27.135,0,0,1,.573,5.682c0,6.526-2.087,11.816-4.662,11.816-2.379,0-4.343-4.52-4.626-10.358.491,5.082,2.3,8.852,4.457,8.852,2.536,0,4.59-5.209,4.59-11.634a27.958,27.958,0,0,0-.333-4.358m7.838-2.667c2.159.265,3.818,5.791.315,8.745-3.681,3.1-11.872-8.382-1.365-8.742a7.191,7.191,0,0,1,1.05,0M1178.492,324.3c0-.615-.01-1.239-.019-1.866-.013-.945-.036-1.9-.067-2.852l-107.354-43.489Zm697.351,57.833c-2.534-.151-4.675-.252-6.282-.3-37.753-1.157-92.566-.192-135.71,2.848,1.062-2.961.647-6.161,8.95-6.828a1137.845,1137.845,0,0,1,127.245-2.609c6.971.244,7.762,2.863,5.8,6.891m-147.52-118.772c11.629-4.315,28.215-10.306,28.215-10.306-1.83,1.252-17.635,8.029-19.465,9.281,8.282-3.081,30.54-11.688,38.822-14.77a22.989,22.989,0,0,1,.7-2.6l-10.055,4.041.279-.618c9.977-21.991,27.5-46.791,53.016-52.034a47.589,47.589,0,0,1,9.59-.975c28.444,0,50.688,24.677,63.977,46.954a188.422,188.422,0,0,1,10.779,21.07,192.408,192.408,0,0,0-12.213-24.826c-13.113-22.276-35.062-46.954-63.129-46.954a46.4,46.4,0,0,0-9.462.974c-25.179,5.242-42.469,30.043-52.314,52.034q-1.115,2.49-2.155,5.028L1760,251.637c14.983-38.878,39.78-63.859,68.84-63.859,50.254,0,94.209,74.673,98.177,166.788q.064,1.52.112,3.033l-11.9-7.739c-4.729-78.267-42.453-140.961-85.483-140.961-18.7,0-35.376,11.846-48.094,31.661,2.928-.8,4.835-.32,7.386,1.806,3.618-1.35,5.8-2.632,8.586-1.91,2.512.651,1.388,2.249.082,2.777l-.812.324c-6.569,2.622-55.172,23.392-54.838,23.258.361-.145,50.379-19.321,50.379-19.321l-46.729,22.53Zm36.613,14.033,11.342-5.732.984-.5.584-.3a4.475,4.475,0,0,1,2.246,1.221c-1.332.7-6.735,3.52-12.23,6.4Zm51.828-21.155,3.773-2,1.137,8.559-3.446,2.091Zm-7.077-5.815,6.826,5.6,3.9-2.095-7.151-5.778-4.117,1.588-.837,1.618Zm45.519,4.9c10.89,10.915-34.156,19.546-58.142,18.392,31.287,6.175,75.346-9.279,58.142-18.392m-27.912-30.378c2.356-.7,4.436-.7,4.645,0s-1.533,1.837-3.89,2.539-4.436.7-4.645,0,1.532-1.837,3.889-2.539m-1.242,6.473c.116-.034-.109-.2-.2-.547a.861.861,0,0,1,.025-.506c.281-.836,2.505-1.679,3.754-2.371,1.311-.727,1.654-1.308,1.336-1.172-1.194.515-2.3.969-3.281,1.281-1.889.6-3.383.7-4.546-.1a2.7,2.7,0,0,0-.3,1.15,2.357,2.357,0,0,0,3.213,2.262m-.457.835c-1.1,2.5-.483,5.554,4.731,4.967-3.758.2-5.524-3.443-2.438-5.418a3.437,3.437,0,0,1-2.293.451m-5.32,17.276c-1.124-5.059.915-10.692,5.44-12.823-.713,1.17.093,3.1,3.372,3.723-3.549-.275-9.841,0-8.811,9.1m15.477-16.55c8.2-1.121,11.54,2.367,13.883,10.374-2.577-6.124-3.645-9.042-10.15-8.444.379,4.34-7.233,5.821-9.578,5.5-.005,0,.021-.041.078-.032,3.377.576,11.676-4.692,5.766-7.4m-57.1,37.245a10.92,10.92,0,0,1,5.182-6.086l9.131-4.158a4.634,4.634,0,0,1,2.853.036c.365-.119.8-.29,1.278-.5,3.936-1.724,11.255-6.076,13.84-5.777a5.606,5.606,0,0,1,2.587,1.094l-14.333,6.671c-1.732-.167-3.429-.615-4.587-.136l-8.81,3.82a5.9,5.9,0,0,0-2.71,6.391,9.859,9.859,0,0,1,4.515-5.453l6.536-3.069c1.831-.744,2.418-.614,4.587.252L1814.6,255.8c1.8,1.922,2.639,4.756.523,6.616l-10.979,5.706c-1.257,1.2.129,1.193-5.453,3.719a38.1,38.1,0,0,1-5.228,1.975c-4.564,1.376-11.524.118-14.814-3.582m2.443,3.139a4.064,4.064,0,0,1,.886,3.005l-8.066,4.388-3.539-1.327ZM951.678,290.643q.757,24.18.188,48.372a846.142,846.142,0,0,1-9.453,110.159c-4.684,30.227-11.264,60.891-21.009,89.915a290.254,290.254,0,0,1-13.9,34.56,154.276,154.276,0,0,1-15.681,26.14c-8.112,10.624-19.607,21.5-33.629,22.38,7.443,3.456,14.443,3.186,22.355-.238,25.979-11.239,42.492-63.432,49.154-88.136,7.226-26.8,12.133-54.513,15.652-82.028a928.7,928.7,0,0,0,7.074-98.535q.645-31.279-.75-62.589m-55.7-208.009,4.6.265c39.2,20.059,67.07,132.984,64.065,269.826-.551,25.058-2.1,49.311-4.514,72.35,2.165-23.344,3.436-47.932,3.666-73.331,1.245-137.188-28.219-249.948-67.812-269.111m20.028,1.153,11.286.65c37.52,28.1,65.05,135.623,64.573,265.329-.165,44.65-3.63,86.883-9.637,124.322a835.152,835.152,0,0,0,7.536-116.328c-.35-139.586-32.339-254.307-73.759-273.973M941.4,85.249l7.39.426a79.431,79.431,0,0,1,11.271,13.2,152.714,152.714,0,0,1,13.8,25.185,280.93,280.93,0,0,1,11.978,32.848c3.914,12.99,7.121,26.217,9.822,39.511,3.039,14.95,5.442,30.041,7.349,45.176q3.129,24.833,4.559,49.848,1.577,26.729,1.453,53.527-.12,32.173-2.625,64.291-.068.856-.138,1.712,1.856-28.994,1.755-58.073a830.694,830.694,0,0,0-6.142-100.547c-1.857-14.878-4.17-29.712-7.056-44.427-2.594-13.229-5.651-26.391-9.339-39.358a323.826,323.826,0,0,0-11.346-33.414,188.277,188.277,0,0,0-13.081-26.6c-4.933-8.146-11.536-17.133-19.652-23.306m16.951.976,2.228.129a43.727,43.727,0,0,1,6.772,1.172c56.739,42.337,69.707,232.007,61.384,309.586.768-18.508.1-36.883-.323-55.414-.74-32.1-2.361-64.5-6.869-96.317-6.449-45.523-17.031-96.852-41.167-136.313-5.11-8.353-13.073-17.229-22.025-22.843m23.7,7.731q.6.379,1.2.778l.216-18.705c5.727-2.688,14.42-5.172,21.764-6.949a174.452,174.452,0,0,1,22.759-3.643V78.2c-10.129,1.319-19.894,3.1-27.91,4.938-3.649.838-9.929,1.948-11.965,4.55-.938,1.2-.92,6.286-.859,9.926a81.248,81.248,0,0,1,13.032,12.954c40.567,64.959,49.787,218.416,44.271,288.319.767-18.508.1-36.883-.324-55.414-.739-32.1-2.36-64.5-6.869-96.316-6.45-45.524-17.031-96.853-41.167-136.313a76.66,76.66,0,0,0-14.15-16.892M881.327,336.231c3.542,0,6.413,8.744,6.413,19.53s-2.871,19.53-6.413,19.53c-2.971,0-5.469-6.15-6.2-14.5a25.95,25.95,0,0,0-9.367,3.121l-.008.493a354.291,354.291,0,0,0,1.5,39.076c.574-8.292,4.15-15.107,14.217-18.629a37.717,37.717,0,0,1,6.751-1.635c-3.493,3.384-13.937,12.546-16.715,49.234,1.26,6.225,2.768,12.439,4.612,18.535a169.559,169.559,0,0,1-5.411-18.289,256.509,256.509,0,0,1-5.564-33.926c-1.114-11.113-1.634-22.3-1.637-33.48q-.689.46-1.358.953c-2.449-7.688-4.3-27.218,0-47.236,1.127,3.2,2.206,6.162,3.3,8.864q.463-4.334,1.044-8.652c.889-6.606,1.99-13.215,3.355-19.765-4.16-13.038,4.564-29.424,11.244-45.014-.78,4.635-1.38,8.918-1.827,12.877,3.6-8.944,8.339-17.917,14.273-23.857q.422,1.513.822,3.031a83.236,83.236,0,0,0-10.839,18.74c-1.959,4.491-3.676,9.12-5.2,13.814-1.027,23.036,4.026,31.693,5.956,35.351a35.3,35.3,0,0,1-6.1-3.668,24.626,24.626,0,0,1-6.274-6.766c-1.485,7.384-2.657,14.839-3.575,22.3q-.4,3.238-.734,6.485c2.408,4.969,5.08,8.75,8.626,11.177,1.171-4.678,3.02-7.7,5.1-7.7m-.777,3.579c2.684,0,4.86,7.142,4.86,15.951s-2.176,15.951-4.86,15.951-4.859-7.141-4.859-15.951,2.175-15.951,4.859-15.951m23.105-56.232q.117.862.232,1.73-.115-.868-.232-1.73m.331,2.488q.112.867.222,1.738-.109-.871-.222-1.738m.3,2.321q.324,2.621.621,5.292c-4.86,4.315-7.833,11.429-11.915,26.993-4.718-22.24.088-47.023,6.316-62.309-4.552-21.373-10.716-38.661-17.957-50.015l-.012-.018q-.415-.652-.837-1.277l-.017-.026-.29-.428c-.255-.373-.513-.736-.771-1.094l-.214-.3c-.263-.359-.527-.713-.792-1.056-.121-.157-.243-.312-.364-.466q-.363-.458-.727-.9c-.145-.176-.291-.348-.437-.518q-.308-.357-.617-.7-.287-.32-.576-.629c-.175-.186-.349-.367-.525-.546q-.309-.318-.622-.622c-.163-.158-.326-.314-.49-.468q-.341-.319-.687-.622c-.139-.122-.278-.243-.418-.361q-.391-.332-.783-.64c-.122-.1-.244-.19-.367-.284q-.428-.325-.86-.627l-.264-.181q-.48-.324-.964-.617l-.211-.125c-.331-.194-.662-.378-.995-.549l-.172-.088q-.525-.266-1.054-.492l-.145-.062q-.553-.233-1.112-.423l-.1-.032c-.383-.128-.767-.242-1.153-.341l-.044-.012c-.4-.1-.793-.182-1.193-.251l-.058-.01c-.4-.067-.8-.118-1.2-.153l-.048,0c-.41-.034-.821-.052-1.234-.052s-.844.018-1.263.053-.839.088-1.256.158-.834.158-1.25.261-.829.225-1.242.364-.825.294-1.234.465-.819.36-1.226.565-.813.426-1.218.663-.807.492-1.208.761-.8.555-1.2.856-.795.619-1.19.952-.788.681-1.18,1.045-.782.743-1.169,1.137-.774.8-1.159,1.228-.766.864-1.147,1.318-.759.923-1.135,1.406-.75.981-1.123,1.493-.742,1.039-1.11,1.579-.735,1.1-1.1,1.664-.726,1.15-1.085,1.747-.717,1.206-1.071,1.829h0q-.532.935-1.057,1.91t-1.042,1.989q-.517,1.014-1.027,2.067t-1.012,2.144h0q-.5,1.092-1,2.221t-.98,2.294q-.486,1.167-.964,2.368t-.947,2.439q-.469,1.238-.929,2.51t-.911,2.58h0q-.451,1.306-.893,2.647t-.875,2.715q-.432,1.373-.856,2.779t-.838,2.844q-.413,1.439-.817,2.907t-.8,2.969q-.393,1.5-.776,3.029t-.756,3.088q-.372,1.559-.734,3.146h0q-.361,1.587-.712,3.2h0q-.349,1.616-.689,3.258h0q-.338,1.643-.667,3.313t-.645,3.364h0q-.317,1.7-.621,3.417t-.6,3.467q-.293,1.745-.574,3.516t-.549,3.563q-.267,1.794-.524,3.61h0q-.256,1.816-.5,3.655t-.473,3.7q-.231,1.86-.447,3.742t-.42,3.783q-.2,1.9-.394,3.822h0q-.191,1.921-.366,3.862t-.338,3.9q-.164,1.958-.31,3.935h0q-.149,1.977-.281,3.97h0q-.133,1.994-.252,4t-.224,4.037q-.1,2.025-.194,4.068t-.164,4.1q-.074,2.056-.133,4.126t-.1,4.154q-.043,2.083-.071,4.179-.024,1.867-.035,3.722l0,.768q-.009,1.789-.006,3.568l0,.641q.006,1.863.022,3.715l0,.186q.019,1.8.049,3.583l.01.581q.031,1.749.074,3.486l.021.8q.046,1.742.1,3.472l.017.5q.054,1.608.118,3.207l.024.622q.071,1.722.154,3.43l.034.7q.086,1.727.181,3.439l.027.468q.091,1.581.191,3.149l.039.605q.105,1.628.222,3.241l.057.8q.119,1.612.247,3.211l.059.724q.121,1.478.25,2.946l.046.523q.136,1.528.283,3.04l.089.919q.145,1.486.3,2.957l.1.91q.149,1.392.305,2.773l.09.782q.151,1.3.309,2.6l.112.916q.174,1.4.355,2.783l.131.981q.182,1.362.371,2.712l.116.816q.166,1.158.337,2.306l.138.92q.2,1.327.411,2.639l.156.965c.141.874.285,1.746.432,2.609l.141.825q.179,1.046.366,2.083c.057.322.114.647.172.969q.218,1.2.444,2.39l.2,1.051q.232,1.2.469,2.391c.065.325.132.647.2.97q.187.915.377,1.82l.24,1.132q.221,1.035.449,2.058l.227,1.011q.251,1.115.509,2.214l.233.983q.208.867.418,1.724.154.623.309,1.243.214.854.432,1.7l.259,1q.268,1.013.539,2.011.145.529.291,1.054.205.741.415,1.474.2.693.4,1.376.206.708.416,1.407c.1.322.194.645.292.965q.283.93.574,1.846c.1.327.208.653.313.977q.245.76.492,1.507.2.607.406,1.206.213.626.427,1.242c.1.3.207.6.312.893.2.573.409,1.138.615,1.7.112.305.224.609.338.91q.291.776.585,1.536c7.916,20.435,17.942,32.556,28.981,32.556,5.713,0,11.236-3.252,16.41-9.214-18.276-14.323-32.07-63.288-35.071-125.069,4.671,61.606,17.662,106.135,37.506,122.031,9.113-12.268,17-33.086,22.688-59.377q-.16.741-.323,1.477c-6.341-8.812-11.915-16.445-12.928-28.337a60.293,60.293,0,0,1,6.163-32.865c1.628,15.951,4.552,21.951,12.6,27.349-1.328,10.3-2.957,20.09-4.848,29.253a453.742,453.742,0,0,0,8.441-72.516q-.153,3.8-.359,7.538c-6.513-1.127-8.715-2.688-15.287-7.74a45.529,45.529,0,0,0,1.967-14.073,52.187,52.187,0,0,0-.977-10.365,29.985,29.985,0,0,0,15.092,1.013v.557a487.563,487.563,0,0,0-3.526-58.521m-5.406,154.374q-.194.936-.392,1.865.2-.928.392-1.865m-23.708,62.785q-.377.5-.758.971.38-.475.758-.971m-1.1,1.4q-.438.537-.881,1.047c.3-.341.589-.689.881-1.047M860.583,170.1c31.4,0,55.75,82.291,54.384,183.8s-27.929,183.8-59.331,183.8-55.749-82.291-54.384-183.8,27.929-183.8,59.33-183.8M904.49,450.852c-10.822,50.288-28.822,83.534-48.779,83.534-29.7,0-53.082-73.607-54.377-167.463,2.111,92.267,25.414,163.854,54.856,163.854,19.568,0,37.274-31.629,48.3-79.926M860.583,172.307c-8.621,0-15.758,7.117-20.552,13.553a97,97,0,0,0-9.659,16.568,186.149,186.149,0,0,0-8.612,22.18c-6.057,18.765-10.074,38.564-12.887,58.061q-2.033,14.092-3.272,28.324,1.185-12.619,2.983-25.147c2.813-19.5,6.83-39.3,12.887-58.059a186.129,186.129,0,0,1,8.613-22.18,96.975,96.975,0,0,1,9.659-16.569c4.794-6.437,11.931-13.553,20.552-13.553,8.573,0,15.491,7.046,20.14,13.522a93.67,93.67,0,0,1,9.206,16.554,181.18,181.18,0,0,1,8.013,22.174c5.563,18.8,9.04,38.6,11.323,58.054a548.956,548.956,0,0,1,3.491,71.257c-.192,14.306-.88,28.653-2.136,42.942,1.441-15.338,2.219-30.753,2.425-46.119a549.084,549.084,0,0,0-3.491-71.257c-2.284-19.452-5.761-39.256-11.323-58.054a181.48,181.48,0,0,0-8.014-22.174,93.68,93.68,0,0,0-9.2-16.554c-4.65-6.476-11.567-13.522-20.141-13.522m53.34,304.086c2.143-10.255,3.975-20.576,5.561-30.93a774.753,774.753,0,0,0,8.46-102.531,781.32,781.32,0,0,0-3.651-94.17c-1.4-13.742-3.225-27.445-5.6-41.054-2.093-12-4.609-23.939-7.755-35.71a250.769,250.769,0,0,0-9.626-29.358,125.67,125.67,0,0,0-11.162-21.965c-5.441-8.271-13.959-18.017-24.728-18.017-10.268,0-18.791,8.852-24.409,16.559a117.954,117.954,0,0,0-10.878,18.705c6.223-7.746,14.566-14.8,24.694-14.8,12.641,0,22.188,10.99,28.377,20.83a137.124,137.124,0,0,1,11.458,23.558,272.84,272.84,0,0,1,9.7,30.935c3.15,12.33,5.667,24.817,7.759,37.368,2.369,14.2,4.185,28.494,5.584,42.823a851.094,851.094,0,0,1,3.635,98.039c-.491,26.973-2.119,53.938-5.09,80.754q-1.051,9.493-2.333,18.961m189-317.139c6.826,13.074,15.06,28.377,25.678,48.151-11.733-17.954-21.083-32.41-28.924-45.01l.373-.365q1.426-1.4,2.873-2.776m-630.146,24.8c3.308,29.769,8.146,86.272,8.211,127.345.066,41.554-5.6,109.648-4.789,106.125,6.468-28.162,8.185-79.49,8.622-104.249.7-39.81-5.869-111.741-12.044-129.222m-25.2,227.52q-.3,1.919-.619,3.792v0c-1.505,8.934-3.2,17.084-5.058,24.287l0-.009c-5.648,21.921-12.772,35.1-20.417,35.1-17.1,0-30.447-65.9-30.24-148.113,1.617,72.512,16.162,128.449,34.456,128.449,5.231,0,10.248-4.582,14.819-12.81-2.026,2.247-4.132,3.438-6.287,3.438-14.694,0-26.107-55.345-25.493-123.616s13.024-123.616,27.718-123.616c2.489,0,4.884,1.593,7.143,4.564,1.842,7.437,3.492,15.926,4.915,25.284a63.929,63.929,0,0,0-3.41-7.984l-.331-.654c-2.6-4.737-5.442-7.34-8.441-7.34-13.045,0-24.062,49.136-24.607,109.747s9.587,109.747,22.632,109.747c.139,0,.278-.006.416-.017h0c-4.879-7.86-18.541-70.7-11.448-115.493-1.981,31.488.614,82.085,16.5,112.578a24.954,24.954,0,0,0,3.424-4.986c.481-.886,1.252-2.617,2.091-4.615-9.032-27.683-15.511-80.05-9.453-124.283.467,11.442-3.8,59.879,11.688,116.546m-5.605-180.6a534.292,534.292,0,0,0-10.456,101.143c-.1,10.826.148,21.283.687,31.163-1.014-12.82-1.512-26.852-1.381-41.563.34-37.718,4.735-70.989,11.15-90.743m9.818,24.731q.292,3.19.55,6.461c-5.467,8.962-9.412,34.5-9.412,64.606,0,22.377,2.178,42.229,5.542,54.629-4.355-7.264-7.564-32.2-7.564-61.852,0-35.342,4.56-63.992,10.184-63.992a1.779,1.779,0,0,1,.7.148m2.333,40.874q.165,6.343.219,12.857c-.884-4.419-2.2-7.223-3.671-7.223-2.528,0-4.6,8.29-4.8,18.831.19-14.3,2.976-25.644,6.384-25.644a2.49,2.49,0,0,1,1.868,1.18m-.072,40.719q-.175,6.018-.444,11.893a2.017,2.017,0,0,1-1.352.611c-3.344,0-6.088-10.918-6.37-24.83.265,10.247,2.307,18.218,4.787,18.218,1.317,0,2.511-2.249,3.379-5.891m-25.9-191.665c13.246,0,23.49,46.166,25.592,108.984C449,204.711,438.621,170.461,426.3,170.461c-10.606,0-20.209,25.358-26.26,64.238,5.464-52.413,16.325-89.056,28.125-89.056m16.113,60.395q.159.7.314,1.4c-2.026-3.1-4.1-5.127-7.774-5.127-4.964,0-10.613,7.5-16.751,26.166,4.235-17.78,10-28.812,16.25-28.812,2.828,0,5.51,2.257,7.961,6.371m-8.892-74.856a3.22,3.22,0,0,0,.272-.375c1.758-3.643,5.035-7.716,8.857-5.163,9.011,6.018,19.565,53.541,19.356,106.208-3.759-63.787-16.568-113.625-28.486-100.669m27.231-12.893c1.242-.028,2.231-.045,2.86-.05q1.588-.017,3.169-.016c28.855,33.264,30.421,194.748,28.08,248.678.85-45.7-3.948-232.073-34.108-248.612m18.18.2q.856.037,1.709.079c1.116.054,2.511.136,4.1.241,17.095,22.548,29.738,102.679,29.738,198.1,0,16.694-.39,32.914-1.12,48.445.283-14.07.3-28.67.031-43.648-1.869-102.525-16.741-187.522-34.461-203.215m18.43,1.347c2.092.2,4.217.424,6.306.665,30.728,40.392,32.725,188.1,29.842,245.815.3-14.07.323-28.67.032-43.648-1.971-101.728-17.546-186.194-36.181-202.832m20.042,2.774a29.542,29.542,0,0,1,3.489.961c21.126,36.7,29.706,139.508,29.706,193.3,0,57.7-.4,32.913-1.162,48.445.294-14.07.316-28.67.032-43.648-1.81-95.526-15.34-175.84-32.064-199.054M700.954,225.94c15.8-.822,28.546.1,28.473,2.05s-12.94,4.207-28.738,5.03-28.546-.1-28.473-2.05,12.939-4.207,28.738-5.03M768.01,342.722l-.209.017.2.219ZM1246.554,506.4a10.367,10.367,0,0,1,2.294,5.476l21.106-44.767Zm675.018-38.162c11.526-6.91,24-23.437,29.309-36.041,4.273-10.139,8.368-29.9.634-39.492,6.474,14.423-1.048,35.471-8.365,48.327-5.535,9.726-12.481,20.506-21.578,27.206M1633.075,407c-13.44,15.184-11.784,54.007,3.631,67.714,18.7,16.626,87.073,16.152,110.441,15.27,19.865-.75,85.322-4.779,130.182-11.883,21.784-3.45,39.385-4.511,53.227-23.191q.5-.677,1-1.367c-13.661,17.217-30.883,18.315-52.06,21.669-44.86,7.1-109.234,10.554-129.1,11.3-23.368.882-91.743,1.357-110.442-15.269-8.755-7.785-13.281-24.358-12.749-36.469.417-9.46.961-20.044,5.868-27.779M1050.3,474.14l67.873,11.783-33.976-1.387,146.072,25.424-182.651-24.865q1.4-5.209,2.682-10.955m127.981-157.531a79.266,79.266,0,0,0-1.3-10.888q-28.476-12.35-56.838-24.917a13.63,13.63,0,0,1-.838,1.1l-5.75-2.364-1.075,1.435-11.75-4.832.459-1.688-21.276-8.749-1.3,1.65-7.41-3.046.216-1.57-10.562-7.782q-.137.751-.309,1.478c-1.1,4.633-1.675,6.411-4.047,8.459q.172,1.455.339,2.923c36.734,14.979,93.527,37.669,121.438,48.8m159.21,143.24c-1.374-1.844-1.819-5.312-2.168-7.218-1.9-10.369-3.111-29.2-3.369-33.329-1.088-17.373.229-40.105,5.03-59.885,1.547-6.375,5.342-20.806,10.157-24.993a11.34,11.34,0,0,1,6.174-2.9,11.147,11.147,0,0,0-9.063,2.9c-3.941,3.427-7.817,18.192-9.128,23.6-4.8,19.781-6.116,42.513-5.029,59.886.453,7.241,1.81,38.982,7.4,41.944m.962.447c5.236,3.2,18.911,1.815,27.955.3,5.771-.97,7.433-.857,12.179-4.767a64.726,64.726,0,0,1,7.709-5.727c11.766-7.273,32.087-16.718,43.31-20.218,2.881-.9,4.788-1.56,6.06-2.7l.008-.007a5.425,5.425,0,0,0,.472-.479l.006-.007q.146-.171.28-.355l0,0q.13-.179.246-.374l.018-.029c.077-.129.151-.265.22-.4l.007-.013a7.515,7.515,0,0,0,.389-.955h0c.027-.083.054-.168.08-.255l.006-.019c.108-.358.2-.745.284-1.164l0-.023c.04-.206.079-.421.115-.645l0-.026.048-.32,0-.026.038-.285v0c.629-4.854.327-13.355.952-29.4a6.582,6.582,0,0,0-2.306-5.6c-9.855-8.794-23.256-13.61-32.842-21.267-5.161-4.123-11.321-13.3-16.293-18.828a19.986,19.986,0,0,0-3-2.7c-4.139-3.037-9.566-5.242-14.17-7.579-7.319-3.714-12.815-6.235-17.672-5.352,4.384-.025,9.367,2.3,15.728,5.529,4.6,2.337,10.031,4.542,14.17,7.58a19.926,19.926,0,0,1,3,2.7c4.973,5.524,11.132,14.706,16.293,18.828,9.587,7.658,22.987,12.474,32.843,21.267a6.583,6.583,0,0,1,2.306,5.6c-.721,18.531-.208,27-1.319,31.407l-.027.4a24.537,24.537,0,0,1-5.35,2.1c-11.7,3.648-32.875,14.358-45.138,21.938a67.5,67.5,0,0,0-8.034,5.969c-4.947,4.076-6.679,3.958-12.694,4.968-7.914,1.33-19.234,2.561-25.891.947m13.4-4.016c-3.242-14.643-.244-102.715,6.972-110.615a6.983,6.983,0,0,1,2.5-1.909,3.942,3.942,0,0,0-1.516.032,6.349,6.349,0,0,0-2.927,2.053c-7.225,7.912-10.223,96.238-6.957,110.684.657-.075,1.3-.157,1.93-.246m619.885-28.115c-19.012,81.289-64.7,138.261-118.69,138.261-22.349,0-43.5-9.771-62.1-26.979,17.49,12.876,36.812,20.045,57.065,20.045,55.46,0,102.632-53.754,123.72-131.328m-90.449-319.3,2.085-.058c68.591,11.849,123.209,112.328,124.615,234.555.585,50.952-8.164,98.127-23.515,136.68,14.262-38.408,22.054-85.03,20.857-135.307-2.882-121.173-56.916-221.144-124.041-235.87m44.739.459q1.883.268,3.753.613a112.651,112.651,0,0,1,21.791,12.251c16.727,11.911,30.675,27.823,41.932,44.577,14.262,21.227,25.037,44.966,32.9,69.051a365.39,365.39,0,0,1,16.631,85.209q1.378,17.98,1.062,36.032-.318,17.25-2.287,34.426-.9,7.749-2.161,15.476,1.052-7.394,1.773-14.809a383.249,383.249,0,0,0-17.02-153.782c-7.911-23.954-18.6-47.523-32.575-68.788-11.695-17.795-26.259-34.786-43.783-47.522a117.408,117.408,0,0,0-22.014-12.733m-20.313-.077c12.545,4.2,24.056,11.17,34.313,19.687,16.886,14.021,30.608,32.315,41.424,51.306,12.928,22.7,22.458,47.625,29.2,72.824a411.862,411.862,0,0,1,9.525,160.187q-1.083,7.647-2.49,15.266,1.639-7.944,2.911-15.939,2.822-17.678,3.958-35.574,1.209-18.668.69-37.4a391.727,391.727,0,0,0-12.471-89.1c-6.68-25.331-16.29-50.441-29.5-73.111-10.43-17.893-23.59-35.039-39.719-48.167-11.218-9.131-23.924-16.313-37.833-19.987M1698.3,225.559l-6.032,25.822c.913.3,2.051.684,3.276,1.1,2.323-12.95,5.806-30.223,8.1-37.968.636-2.147,2.758-7.718,3.611-10.04-5.129,6.23-7.006,13.394-8.956,21.09m34.6-26.9a24.8,24.8,0,0,0-9.376-1.366c-9.275.807-13.628,7.259-17.551,15.835,2.574-14.947,12.992-21.142,26.927-14.469M1938.423,300.4c-15.145-84.272-59.332-145.615-110.807-145.615-43.567,0-80.937,43.947-99.439,108.543l-.507-.126.016-.081c9.51-42.194,41.927-118.942,92.291-122.663,67.514-4.99,105.166,78.675,118.445,159.942M1890.443,495.89c-13.31,16.128-29.477,25.464-47.238,25.464a52.491,52.491,0,0,1-15.777-2.473,516.073,516.073,0,0,0,63.015-22.991M682.813,250.9c-.025,0,3.6.2,4.066,6.659,3.5.048,7.4.174,10.906.223,1.047-3.025,1.788-3.918,4.118-6.248a77.973,77.973,0,0,0-19.09-.634m372.573-134.568a87.028,87.028,0,0,0-2.4,9.821c3.145-1.282,6.307-2.547,9.455-3.779-1.141-4.415-2.657-8.94-4.24-9.275-1.441-.306-2.205,1.056-2.812,3.233M966.234,71.441c2.177,0,3.815,2.808,3.658,6.272s-2.049,6.272-4.226,6.272-3.815-2.808-3.658-6.272,2.049-6.272,4.226-6.272m-11.375-3.563c1.823,0,3.141,2.8,2.947,6.259s-1.832,6.26-3.654,6.26-3.142-2.8-2.947-6.26,1.831-6.259,3.654-6.259m58.907,59.878c7.6,3.584,18.961.236,24.22-6.067,6.921-8.3,15.744-32.741,27.686-14.395l2.478,4.736-.4-2.63-.65-23.172c-.691-.1-1.367-.182-2.029-.259l-.148,19.607c-7.077-9.932-13.043-4.949-18.161,2.274l.151-22.378-.42.021c-.971.048-1.946.108-2.918.176l-.647,26.112a11.764,11.764,0,0,1-1.259,3.991l-.027-29.955q-.909.077-1.817.163c.2,9.786,1.927,32.346-5.862,38.042V86.642q-.732.1-1.465.2v37.868c-19.956,12.148-28.58-14.75-26.3-32.258a3.009,3.009,0,0,0-1.032,1.385c-.476,1.314-.264,17.747-.19,23q1.6,2.3,3.154,4.786,1.276,2.04,2.526,4.189a13.467,13.467,0,0,0,3.1,1.945m55.317-13.942,1.533,2.931,1.326-.492V87.037q-1.453-.281-2.859-.51Zm26.989-5.59-.134-12.316a58.427,58.427,0,0,0-15.093-6.684v23.838c5.02-1.742,10.107-3.4,15.227-4.838m15.558-39.062a29.639,29.639,0,0,0-4.116-2.935,71.846,71.846,0,0,0-7.08-3.943l-.048,7.148c4.552,2.147,8.571,4.711,11.184,7.575Zm-11.346,15.2a32.468,32.468,0,0,1,9.866,6.486,12.6,12.6,0,0,1,1.3,1.591l.094-12.257a40.46,40.46,0,0,0-11.182-7.5Zm-93.56-18.385V57.546l-.74.176c-7.618,1.843-16.688,4.447-22.392,7.251l-.1,8.414c5.712-2.777,14.694-5.352,22.248-7.18q.485-.116.981-.232m94.728-11.015a44.16,44.16,0,0,1,3.486,7.919c-13.71-7.9-29.094-10.687-44.837-11.368-18.239-.79-38.621.933-54.117,4.682-1.4.339-2.851.7-4.321,1.09,23.407-11.5,57.733-14.976,81.024-10.04-4.129-13.228-17.16-27.446-36.4-34.688,21.13,4.525,38.372,19.541,53.212,41.032.684.443,1.345.9,1.957,1.375M986.656,1.335a53.785,53.785,0,0,1,17.689,5.915,36.381,36.381,0,0,1,4.351,2.772q-1.438.332-2.862.713c-4.487-2.988-13.186-9.367-28.943-9.576a57.475,57.475,0,0,1,9.764.176m550.08,358.047c43.376,8.572,139.682,21.145,188.223,17.691-69.994,5.683-135.451.951-188.223-17.691m-399.537.083c.7.022,1.223,1.286,1.173,2.82s-.657,2.761-1.354,2.739-1.222-1.287-1.173-2.821.656-2.76,1.354-2.738m5.2-11.267c.7.022,1.223,1.286,1.173,2.82s-.656,2.761-1.354,2.738-1.223-1.285-1.173-2.82.656-2.761,1.354-2.739m-3.068-10.241c.693.078,1.118,1.379.947,2.9s-.872,2.7-1.565,2.623-1.118-1.379-.947-2.9.872-2.7,1.565-2.623m4.978-48.129-23.688-9.741c-.077.122-.155.242-.232.36l23.726,10.289Zm14.6,46.5a63.828,63.828,0,0,1-8.831-.548,190.182,190.182,0,0,0-2.018,26.53c17.368-.829,31.817-1.95,46.077-3.511.276-3.509.563-7.161.841-10.994.347-4.763.357-8.549-.374-9.525-1.5-2-6.153-1.846-11.951-2.019-2.339-.069-23.689.092-23.743.066m-12.374-1.771c-3.247-2.009-7.341-5.844-8.633-9.787l-45.454-25.009-32.684.814c.837,12.7,1.38,25.885,1.594,39.415q.191,11.962.029,23.548c18.685.36,37.7.311,56.092-.123,3.969-.093,7.969-.162,11.932-.338,1.8-.081,5.234-.34,5.259-.229.8,3.6,3.508,3.979,4.537-.174,0,0,2-.065,2.94-.089.069,1.333.181,2.974.34,4.853-27.321,1.251-54.732,2.376-81.175.662q-.034,1.723-.075,3.436c23.058-.141,54.432-.776,81.43-2.086l.082.848c.7.023,1.226,1.281,1.186,2.813a4.317,4.317,0,0,1-.625,2.3c1.305,10.8,3.756,24.88,7.941,35.99-5.274-21.957-5.63-33.168-5.507-41.422a271.615,271.615,0,0,1,.79-35.42m1.636,34.613c16.452-.877,30.858-2.021,40.114-3.478-13.268.263-26.7.868-40.179,1.487.016.666.04,1.328.064,1.992m-66.836-75.524L1058.2,280.92q.611,6.535,1.115,13.281Zm169.007-23.473a17.93,17.93,0,0,0-1.31-4.522,9.384,9.384,0,0,0-1.832-2.795c1.529-.026,3.016-.036,4.445-.027.167.215.336.449.513.706a16.24,16.24,0,0,1,2.508,6.071q-1.98.27-4.323.567m-3.143-7.317a254.311,254.311,0,0,0-32.51,2.6,8.149,8.149,0,0,0-3.1-.491,106.661,106.661,0,0,1,12.96-1.744c7.635-.6,15.3-.845,22.059-.913a7.672,7.672,0,0,1,.586.543m-.586-.543c-2.326-1.94-5.329-2.07-8.055-2.151a45.058,45.058,0,0,1,8.062.1c2.282.324,3.407.716,4.578,2.026-1.471,0-3,.007-4.586.023m-161.118-11.683-.287,1.778-.268,1.66Zm118.781,54c.018.163.033.326.044.485-.01-.159-.026-.322-.044-.485m-.391,4.422-.023.071Zm-.087.262-.008.02,0,0v0l0,0,0,0Zm.017-.049v0Zm.025-.074v-.007l0,0v0l.007-.02,0,0v0l0,0,0-.007v0l0,0v-.007l0-.008,0,0v0l0,0v-.016l.011-.033Z" transform="translate(-68.596 -0.184)" fill="#0a0a0a" fill-rule="evenodd"/>
    <path id="Path_12" data-name="Path 12" d="M1564.99,711.2Q1711.3,724.458,1856.1,750.193c126.135,22.21,251.054,50.9,374.609,84.521l150.226,34.1c-62.323-17.263-124.755-34.125-187.455-49.972-72.979-18.444-146.3-35.5-220.085-50.4-76.944-15.541-154.33-28.722-232.152-39.012q-87.868-11.617-176.257-18.226" transform="translate(-274.385 -124.696)" fill-rule="evenodd"/>
    <path id="Path_13" data-name="Path 13" d="M457.3,668.157q175.822,33.217,348.366,81.383c124.956,34.669,250.526,69.125,370.238,118.907,296.469,123.284,311.894,111.234,252.15,86.4-73.534-28.231-147.248-55.989-221.406-82.547-86.315-30.913-173.2-60.181-260.916-86.893-91.461-27.856-183.737-52.9-276.881-74.5q-105.164-24.38-211.55-42.749" transform="translate(-80.176 -117.149)" fill-rule="evenodd"/>
  </g>
</svg>
