<svg xmlns="http://www.w3.org/2000/svg" xmlns:xlink="http://www.w3.org/1999/xlink" width="1120.392" height="282.232" viewBox="0 0 1120.392 282.232">
  <defs>
    <linearGradient id="linear-gradient" x1="0.518" y1="-0.328" x2="0.637" y2="0.972" gradientUnits="objectBoundingBox">
      <stop offset="0" stop-color="#eac666"/>
      <stop offset="1" stop-color="#eac666" stop-opacity="0"/>
    </linearGradient>
  </defs>
  <g id="Group_19" data-name="Group 19" transform="translate(-206.731 1079.818)">
    <path id="Path_23" data-name="Path 23" d="M288.414-147.042H153.468v44.6h81.27c-4.536,32.886-31.752,59.346-76.356,59.346-59.346,0-92.232-42.336-92.232-89.964s34.776-88.074,86.562-88.074c40.824,0,65.394,18.522,78.624,45.738L279.342-189c-16.632-44.226-61.614-80.892-127.008-80.892-78.624,0-138.726,59.346-138.726,137.214,0,78.246,59.724,137.97,140.994,137.97,79.38,0,133.812-51.03,133.812-125.874Zm88.074-15.876v-28.35h-49.9V0h49.9V-83.16c0-51.408,22.3-70.308,63.126-63.882v-46.872C409.752-198.072,387.828-185.22,376.488-162.918ZM544.32,5.292c26.838,0,48.006-11.34,61.614-28.728V0h50.274V-191.268H605.934v23.058c-13.608-17.388-34.776-28.35-61.614-28.35-52.92,0-94.5,42.714-94.5,100.926C449.82-37.8,491.4,5.292,544.32,5.292Zm8.694-44.6c-31.374,0-53.676-23.436-53.676-56.7,0-32.886,22.3-55.944,53.676-55.944,30.24,0,54.432,23.058,54.432,55.944C607.446-62.748,583.254-39.312,553.014-39.312ZM816.858-196.56c-27.594,0-48.384,12.474-61.614,29.484V-275.94h-49.9V0h49.9V-94.5c0-33.642,18.144-55.566,46.116-55.566,27.594,0,40.824,18.522,40.824,47.628V0h49.9V-111.888C892.08-162.918,866.754-196.56,816.858-196.56ZM1022.112,5.292c26.838,0,48.006-11.34,61.614-28.728V0H1134V-191.268h-50.274v23.058c-13.608-17.388-34.776-28.35-61.614-28.35-52.92,0-94.5,42.714-94.5,100.926C927.612-37.8,969.192,5.292,1022.112,5.292Zm8.694-44.6c-31.374,0-53.676-23.436-53.676-56.7,0-32.886,22.3-55.944,53.676-55.944,30.24,0,54.432,23.058,54.432,55.944C1085.238-62.748,1061.046-39.312,1030.806-39.312Z" transform="translate(193.123 -802.878)"/>
    <path id="Path_21" data-name="Path 21" d="M704.848-276.44h50.9v107.928a75.261,75.261,0,0,1,35.3-24.541,2.458,2.458,0,0,1,.756-.139h0a1.064,1.064,0,0,1,.937.46c.648.961-.137,3.015-1.976,7.57a89.526,89.526,0,0,0-4.6,13.606,88.3,88.3,0,0,0-1.663,15.924c-.222,5.563-.369,9.238-2.032,10.018-16.978,7.964-26.716,26.594-26.716,51.113V.5h-50.9Zm49.9,1h-48.9V-.5h48.9v-94c0-24.923,9.947-43.883,27.291-52.019.46-.216.807-1.134,1.033-2.729.234-1.648.322-3.861.424-6.424a89.091,89.091,0,0,1,1.687-16.106,90.353,90.353,0,0,1,4.653-13.759c.763-1.89,1.422-3.522,1.8-4.737.508-1.648.284-1.894.275-1.9a.252.252,0,0,0-.1-.015,1.5,1.5,0,0,0-.447.09,74.4,74.4,0,0,0-35.714,25.333l-.895,1.15Zm-602.41,5.048a156.422,156.422,0,0,1,45.239,6.441,133.521,133.521,0,0,1,36.833,17.507,124.1,124.1,0,0,1,27.664,25.838,118.413,118.413,0,0,1,17.74,31.43l.191.509L231.069-174.8l-.183-.377c-14.662-30.163-40.964-45.457-78.174-45.457-49.063,0-86.062,37.649-86.062,87.574,0,43.089,28.706,89.464,91.732,89.464,20.995,0,39.282-5.957,52.885-17.226a64.254,64.254,0,0,0,15.461-18.714,66.569,66.569,0,0,0,7.434-22.407H152.968v-45.6H288.914v26.96a133.662,133.662,0,0,1-9.783,51.434,114.587,114.587,0,0,1-27.513,39.934A123.392,123.392,0,0,1,209.17-3.381,158.342,158.342,0,0,1,154.6,5.792a158.54,158.54,0,0,1-29.485-2.728A145.989,145.989,0,0,1,98.1-4.8,138.165,138.165,0,0,1,74-17.313,133.9,133.9,0,0,1,53.278-33.995a132.524,132.524,0,0,1-16.9-20.364,134.009,134.009,0,0,1-12.628-23.56,138.865,138.865,0,0,1-7.905-26.269,148.147,148.147,0,0,1-2.734-28.49,146.288,146.288,0,0,1,2.746-28.35,138.167,138.167,0,0,1,7.912-26.132,134.236,134.236,0,0,1,12.59-23.432,133.116,133.116,0,0,1,16.779-20.249,134,134,0,0,1,20.478-16.585A136.775,136.775,0,0,1,97.3-259.866a142.03,142.03,0,0,1,26.4-7.815A151,151,0,0,1,152.334-270.392Zm126.347,81.06a117.452,117.452,0,0,0-17.4-30.656,123.1,123.1,0,0,0-27.441-25.629,132.522,132.522,0,0,0-36.558-17.375,155.424,155.424,0,0,0-44.95-6.4c-37.905,0-72.885,13.943-98.5,39.262s-39.731,59.937-39.731,97.452c0,78.371,60.4,137.47,140.494,137.47A157.345,157.345,0,0,0,208.827-4.32a122.4,122.4,0,0,0,42.106-25.622,113.594,113.594,0,0,0,27.274-39.588,132.669,132.669,0,0,0,9.707-51.051v-25.96H153.968v43.6h81.344l-.078.568A67.644,67.644,0,0,1,227.6-79.051a65.252,65.252,0,0,1-15.7,19,72.46,72.46,0,0,1-23.253,12.781,94.775,94.775,0,0,1-30.27,4.674,103.487,103.487,0,0,1-39.638-7.4,83.571,83.571,0,0,1-29.1-19.881A83.942,83.942,0,0,1,79.26-83.4,88.394,88.394,0,0,1,71.748-98.73a94.534,94.534,0,0,1-4.561-16.7,101.077,101.077,0,0,1-1.537-17.627,96.35,96.35,0,0,1,1.6-17.55,92.279,92.279,0,0,1,4.673-16.485,88.562,88.562,0,0,1,7.534-15.028A85.291,85.291,0,0,1,89.648-195.3a83.088,83.088,0,0,1,12.631-10.933,82.954,82.954,0,0,1,14.864-8.3,89.441,89.441,0,0,1,35.57-7.1,109.906,109.906,0,0,1,27.774,3.336,80.31,80.31,0,0,1,22.15,9.4,74.218,74.218,0,0,1,16.953,14.544,86.33,86.33,0,0,1,12.013,18.36ZM544.32-197.06a83.2,83.2,0,0,1,35.983,7.7,72.622,72.622,0,0,1,14.351,8.992,72.7,72.7,0,0,1,10.78,10.727v-22.13h51.274V.5H605.434V-22.008a74.475,74.475,0,0,1-10.779,10.784A73.686,73.686,0,0,1,580.306-2.1,81.874,81.874,0,0,1,544.32,5.792a95.144,95.144,0,0,1-19.356-1.975,91.788,91.788,0,0,1-17.935-5.7,91.557,91.557,0,0,1-16.153-9.1A93.421,93.421,0,0,1,476.862-23.14a96.717,96.717,0,0,1-11.518-14.879,101.286,101.286,0,0,1-8.666-17.266,111.03,111.03,0,0,1-7.358-40.349,111.613,111.613,0,0,1,7.358-40.509,100.9,100.9,0,0,1,8.666-17.273,96.124,96.124,0,0,1,11.518-14.855A91.959,91.959,0,0,1,544.32-197.06Zm62.114,30.3-.894-1.142c-14.21-18.158-35.952-28.158-61.22-28.158-53.589,0-94,43.174-94,100.426,0,27.7,9.684,53.2,27.268,71.807A90.885,90.885,0,0,0,544.32,4.792c25.077,0,46.819-10.134,61.22-28.536l.894-1.142V-.5h49.274V-190.768H606.434Zm-177.7-28.431a79.744,79.744,0,0,1,10.951.781l.431.06v47.892l-.578-.091a92.774,92.774,0,0,0-14.319-1.2,62.122,62.122,0,0,0-11.088.944,45.358,45.358,0,0,0-9.677,2.859,37.75,37.75,0,0,0-8.251,4.824,38.055,38.055,0,0,0-6.817,6.851,46.548,46.548,0,0,0-5.366,8.954,65.055,65.055,0,0,0-3.881,11.13,118.837,118.837,0,0,0-3.149,29.03V.5h-50.9V-191.768h50.9v26.83a62.164,62.164,0,0,1,8.051-11.5,55.166,55.166,0,0,1,11.9-10.1,55.18,55.18,0,0,1,14.627-6.41A64.437,64.437,0,0,1,428.732-195.191Zm10.382,1.713a78.487,78.487,0,0,0-10.382-.713c-23.074,0-41.469,11.187-51.8,31.5l-.946-.227v-27.85h-48.9V-.5h48.9V-83.16a119.824,119.824,0,0,1,3.18-29.277,66.051,66.051,0,0,1,3.942-11.3,47.55,47.55,0,0,1,5.482-9.146,39.061,39.061,0,0,1,7-7.031,38.749,38.749,0,0,1,8.47-4.952,46.359,46.359,0,0,1,9.891-2.924,63.118,63.118,0,0,1,11.267-.96,93.029,93.029,0,0,1,13.9,1.125Zm113.9,41.022a54.353,54.353,0,0,1,38.91,15.787,53.6,53.6,0,0,1,11.733,17.855,60.6,60.6,0,0,1,4.289,22.8,62.028,62.028,0,0,1-4.288,23.078,54.466,54.466,0,0,1-11.731,18.1,53.966,53.966,0,0,1-38.913,16.026,56.273,56.273,0,0,1-21.815-4.22,50.081,50.081,0,0,1-17.151-11.812,53.361,53.361,0,0,1-11.2-18.1,65.41,65.41,0,0,1-4.007-23.068,63.882,63.882,0,0,1,4.008-22.793,52.469,52.469,0,0,1,11.2-17.858A50.05,50.05,0,0,1,531.2-148.3,57.026,57.026,0,0,1,553.014-152.456Zm0,112.644c30.746,0,53.932-24.161,53.932-56.2,0-31.608-23.186-55.444-53.932-55.444-31.309,0-53.176,22.8-53.176,55.444A64.414,64.414,0,0,0,503.781-73.3a52.366,52.366,0,0,0,10.993,17.763,49.087,49.087,0,0,0,16.81,11.577A55.279,55.279,0,0,0,553.014-39.812Z" transform="translate(193.623 -803.378)" opacity="0.61" fill="url(#linear-gradient)"/>
  </g>
</svg>
