<svg xmlns="http://www.w3.org/2000/svg" xmlns:xlink="http://www.w3.org/1999/xlink" width="523.655" height="277.318" viewBox="0 0 523.655 277.318">
  <defs>
    <linearGradient id="linear-gradient" x1="1.194" y1="-0.405" x2="0.419" y2="1.11" gradientUnits="objectBoundingBox">
      <stop offset="0" stop-color="#eac666"/>
      <stop offset="1" stop-color="#eac666" stop-opacity="0"/>
    </linearGradient>
  </defs>
  <g id="Group_20" data-name="Group 20" transform="translate(-1798.791 1078.818)">
    <path id="Path_22" data-name="Path 22" d="M1800.414-264.6V-158h-120.96V-264.6h-51.786V0h51.786V-111.132h120.96V0h52.164V-264.6Zm126.63,46.494c16.632,0,29.862-12.852,29.862-29.484,0-15.876-13.23-28.728-29.862-28.728s-29.862,12.852-29.862,28.728C1897.182-230.958,1910.412-218.106,1927.044-218.106ZM1901.34,0h50.274V-191.268H1901.34Zm100.17,0h49.9V-275.94h-49.9Zm99.036,0h49.9V-275.94h-49.9Z" transform="translate(171.123 -802.5)"/>
    <path id="Path_22-2" data-name="Path 22" d="M323.946-276.818a31.4,31.4,0,0,1,11.871,2.293,30.152,30.152,0,0,1,9.645,6.258,28.957,28.957,0,0,1,6.478,9.291,28.3,28.3,0,0,1,2.369,11.386,29.639,29.639,0,0,1-8.844,21.336,30.46,30.46,0,0,1-21.518,8.648,30.46,30.46,0,0,1-21.518-8.648,29.639,29.639,0,0,1-8.844-21.336,28.3,28.3,0,0,1,2.369-11.386,28.959,28.959,0,0,1,6.478-9.291,30.153,30.153,0,0,1,9.645-6.258A31.4,31.4,0,0,1,323.946-276.818Zm0,58.212c16.465,0,29.362-12.731,29.362-28.984,0-15.565-13.172-28.228-29.362-28.228s-29.362,12.663-29.362,28.228C294.584-231.337,307.481-218.606,323.946-218.606Zm73.966-57.834h50.9V.5h-50.9Zm49.9,1h-48.9V-.5h48.9Zm49.14-1h50.9V.5h-50.9Zm49.9,1h-48.9V-.5h48.9ZM31.308-265.1H76.856v106.6h119.96V-265.1H249.98V.5H196.816V-110.632H76.856V.5H46.117l-.546-5.536,1-6.8.461-8.236.64-10.213L47.32-37.84l.455-8.762L47.49-58.325l-.45-10.627-1.393-9.482L44.8-87.558l-.464-12.534-.219-9.742-1.175-11.754-.665-9.608-.983-8.276v-.032l.085-9.3-1-7.5v-50.164l-1.331-9.148-1.164-10.48-2-10.313-2.171-10.7Zm44.548,1H32.451L34.7-247.25l2.163,10.65,2.007,10.378,1.165,10.491,1.338,9.195v50.17l1,7.5v.036l-.085,9.3.979,8.249.665,9.613,1.178,11.79.219,9.756.464,12.51.845,9.07,1.4,9.493v.026l.452,10.668.286,11.764v.019l-.453,8.732.354,7.564-.644,10.264-.467,8.3-.987,6.7L47.023-.5H75.856V-111.632h121.96V-.5H248.98V-264.1H197.816v106.6H75.856Zm221.886,72.332h51.274V.5H297.742Zm50.274,1H298.742V-.5h49.274Z" transform="translate(1774.602 -802)" opacity="0.61" fill="url(#linear-gradient)"/>
  </g>
</svg>
